/* XPM */
static char *result[] = {
/* columns rows colors chars-per-pixel */
"40 34 103 2 ",
"   c #837E82",
".  c #827E7F",
"X  c #827E7D",
"o  c #817D7C",
"O  c #837F7E",
"+  c #7E807D",
"@  c #7D7F7C",
"#  c #7F817E",
"$  c #80827F",
"%  c #837F80",
"&  c #848081",
"*  c #84807F",
"=  c #837F7C",
"-  c #817F84",
";  c #7E837F",
":  c #7D827E",
">  c #7C817D",
",  c #7D8184",
"<  c #7E8285",
"1  c #808185",
"2  c #7F8084",
"3  c #7E7F83",
"4  c #7F8082",
"5  c #7F8180",
"6  c #FBFBFB",
"7  c gray65",
"8  c #3E3E3E",
"9  c #717171",
"0  c #82817F",
"q  c #807F7B",
"w  c #81807E",
"e  c #807F7D",
"r  c #F4F4F4",
"t  c #939393",
"y  c gray13",
"u  c black",
"i  c gray7",
"p  c #7F807B",
"a  c #827F86",
"s  c #838087",
"d  c #7E807F",
"f  c #808281",
"g  c #828081",
"h  c gray92",
"j  c gray50",
"k  c gray8",
"l  c gray62",
"z  c #818284",
"x  c #808183",
"c  c #807E83",
"v  c #7D8182",
"b  c gray87",
"n  c #6C6C6C",
"m  c gray4",
"M  c gray37",
"N  c #827D81",
"B  c #7F7E83",
"V  c #808080",
"C  c #80807E",
"Z  c #CDCDCD",
"A  c #585858",
"S  c gray1",
"D  c #2A2A2A",
"F  c #7D827C",
"G  c #81807C",
"H  c #82817D",
"J  c gray73",
"K  c #444444",
"L  c gray83",
"P  c #313131",
"I  c #5F5F5F",
"U  c #DDDDDD",
"Y  c #9F9F9F",
"T  c gray96",
"R  c #353535",
"E  c #606060",
"W  c #7E7F81",
"Q  c #807E81",
"!  c #817F82",
"~  c #807E7F",
"^  c #817F80",
"/  c #81817F",
"(  c gray24",
")  c #6F6F6F",
"_  c #7E7E7C",
"`  c #7F7F7D",
"'  c #828280",
"]  c #81827D",
"[  c #7D7E79",
"{  c #808082",
"}  c #7F7F81",
"|  c #828083",
" . c #838184",
".. c #818181",
"X. c gray49",
"o. c #7C7C7E",
"O. c #7E7E80",
"+. c #818183",
"@. c #828284",
"#. c #80817C",
"$. c #7E7E7E",
"%. c #807F84",
"&. c #818085",
/* pixels */
"  . . X X X o o X X O + + @ @ + + # $ o X X X X . . .     % & * * * = - - - - - ",
"; : > , , , , , , < < 1 1 2 2 2 2 1 1 , , , , , , < < 3 3 4 5 6 7 8 9 0 0 0 0 0 ",
"q q q w e e e e e e e X X X X X X X X 0 w w w w w w w , , r t y u u i p p p p p ",
"a s s 0 0 0 0 0 w w w d 5 f f f f f f g 0 w w w w w w h j k u u u u l z z z x x ",
"# # # 2 2 2 2 2 2 3 3 c c - - - - - - , , < < , v b n m u u u u u M N B B B B B ",
"e e e w w w w w w w w $ $ # # # # # # j j V C Z A S u u u u u u D r F G G G H H ",
"V V V V V V V V V V V V V V V V V V V V V J K u u u u u u u u m L V V V V V V V ",
"V V V V V V V V V V V V V V V V V V 6 7 P u u u u u u u u u u l V V V V V V V V ",
"V V V V V V V V V V V V V V V V r t y u u u u u u u u u u u I V V V V V V V V V ",
"V V V V V V V V V V V V V V h j k u u u u u u u u u u u u D r V V V V V V V V V ",
"V V V V V V V V V V V V U n m u u u u u u u u u u u u u m L V V V V V V V V V V ",
"V V V V V V V V V V Z A S u u u u u u u u u u u u u u u Y V V V V V V V V V V V ",
"V V V V V V V V J K u u u u u u u u u u u u u u u u u I V V V V V V V V V V V V ",
"V V V V V 6 7 P u u u u u u u u u u u u u u u u u u D r V V V V V V V V V V V V ",
"V V V T t y u u u u u u u u u u u u u u u u u u u m L V V V V V V V V V V V V V ",
"V V V R u u u u u u u u u u u u u u u u u u u u u Y V V V V V V V V V V V V V V ",
"V V V R u u u u u u u u u u u u u u u u u u u u u Y V V V V V V V V V V V V V V ",
"V V V T t y u u u u u u u u u u u u u u u u u u u m L V V V V V V V V V V V V V ",
"V V V V V 6 7 P u u u u u u u u u u u u u u u u u u D r V V V V V V V V V V V V ",
"V V V V V V V V J K u u u u u u u u u u u u u u u u u E V V V V V V V V V V V V ",
"V V V V V V V V V V Z A S u u u u u u u u u u u u u u u Y V V V V V V V V V V V ",
"V V V V V V V V V V V V U n m u u u u u u u u u u u u u m L V V V V V V V V V V ",
"V V V V V V V V V V V V V V h j k u u u u u u u u u u u u D r V V V V V V V V V ",
"V V V V V V V V V V V V V V V V r t y u u u u u u u u u u u E V V V V V V V V V ",
"V V V V V V V V V V V V V V V V V V 6 7 P u u u u u u u u u u Y V V V V V V V V ",
"V V V V V V V V V V V V V V V V V V V V V J K u u u u u u u u m L V V V V V V V ",
"V V V V V V V V V V V V V V V V V V V V V V V Z A S u u u u u u D r V V V V V V ",
"V V V V V V V V V V V V V V V V V V V V V V V V V b n m u u u u u E V V V V V V ",
"V V V V V V V V V V V V V V V V V V V V V V V V V V V h j k u u u u Y V V V V V ",
"V V V V V V V V V V V V V V V V V V V V V V V V V V V V V r t y u u i V V V V V ",
"W W x c c Q ! ! Q ~ ^ ^ ^ ^ ^ ^ ^ ^ ^ ^ ^ ^ ^ ^ ^ ^ ^ / / / C 6 7 ( ) # # # # $ ",
"_ ` / C C / ' ' ] p [ { { { { { { { { { { { { { { { { Q Q Q Q ! ! ! ! } } } } } ",
"! |  ...j X.o.O.{ +.@.p p p p #.#.#.#.] ] #.#.#.#.#.p w w w w 0 0 0 0 w w w w 0 ",
"j O.O.C / / ....V j $.%.%.%.%.&.&.&.&.B B B B B B B B %.%.%.%.%.%.B B B B B %.%."
};
