/* XPM */
static char *_583ed79ba6047cb94efa599fbbdad8fDt7ZB7L4UFisLxSl[] = {
/* columns rows colors chars-per-pixel */
"40 34 71 1 ",
"  c #837E82",
". c #827E7F",
"X c #827E7D",
"o c #817D7C",
"O c #837F7E",
"+ c #7E807D",
"@ c #7D7F7C",
"# c #7F817E",
"$ c #80827F",
"% c #837F80",
"& c #848081",
"* c #84807F",
"= c #81807E",
"- c #817F84",
"; c #7E837F",
": c #7D827E",
"> c #7C817D",
", c #7D8184",
"< c #7E8285",
"1 c #808185",
"2 c #7F8084",
"3 c #7E7F83",
"4 c #7F8082",
"5 c #7F8180",
"6 c black",
"7 c #82817F",
"8 c #807F7B",
"9 c #807F7D",
"0 c #7F807B",
"q c #827F86",
"w c #838087",
"e c #7E807F",
"r c #808281",
"t c #828081",
"y c #818284",
"u c #808183",
"i c #807E83",
"p c #7D8182",
"a c #7F7E83",
"s c gray50",
"d c #808080",
"f c #7D827C",
"g c #81807C",
"h c #82817D",
"j c gray4",
"k c #7E7F81",
"l c #807E81",
"z c #817F82",
"x c #807E7F",
"c c #817F80",
"v c #81817F",
"b c #80807E",
"n c #7E7E7C",
"m c #7F7F7D",
"M c #828280",
"N c #81827D",
"B c #7D7E79",
"V c #808082",
"C c #7F7F81",
"Z c #828083",
"A c #838184",
"S c #818181",
"D c gray49",
"F c #7C7C7E",
"G c #7E7E80",
"H c #818183",
"J c #828284",
"K c #80817C",
"L c #7E7E7E",
"P c #807F84",
"I c #818085",
/* pixels */
" ..XXXooXXO++@@++#$oXXXX...  %&**==-----",
";:>,,,,,,<<11222211,,,,,,<<3345==6667777",
"888=9999999XXXXXXXX7=======,,==666660000",
"qww77777===e5rrrrrrt7========6666666yyuu",
"###22222233ii------,,<<,p==66666666aaaaa",
"999========$$######ssd===666666666fggghh",
"dddddddddddddddddddd==66666666666ddddddd",
"dddddddddddddddddd==666666666666=ddddddd",
"dddddddddddddddd==6666666666666=dddddddd",
"ddddddddddddd===66666666666666=ddddddddd",
"ddddddddddd==6666666666666666=dddddddddd",
"ddddddddd==66666666666666666=ddddddddddd",
"ddddddd==666666666666666666X=ddddddddddd",
"ddddd==6666666666666666666X=dddddddddddd",
"ddd==66666666666666666666X=ddddddddddddd",
"ddd666666666666666666666XXdddddddddddddd",
"ddd666666666666666666666XXdddddddddddddd",
"ddd==66666666666666666666X=ddddddddddddd",
"ddddd==6666666666666666666X=dddddddddddd",
"ddddddd==666666666666666666X=ddddddddddd",
"ddddddddd==66666666666666666=ddddddddddd",
"ddddddddddd===66666666666666j=dddddddddd",
"dddddddddddddd==66666666666666=ddddddddd",
"dddddddddddddddd==6666666666666=dddddddd",
"dddddddddddddddddd==666666666666=ddddddd",
"dddddddddddddddddddd==666666666j6ddddddd",
"dddddddddddddddddddddd===666666666dddddd",
"ddddddddddddddddddddddddd==66666666ddddd",
"ddddddddddddddddddddddddddd==6666666dddd",
"ddddddddddddddddddddddddddddd==66666dddd",
"kkuiilzzlxcccccccccccccccccvvvb==666###$",
"nmvbbvMMN0BVVVVVVVVVVVVVVVVllllzzzzCCCCC",
"zZASsDFGVHJ0000KKKKNNKKKKK0====7777====7",
"sGGbvvSSdsLPPPPIIIIaaaaaaaaPPPPPPaaaaaPP"
};
