/* XPM */
static char *result[] = {
/* columns rows colors chars-per-pixel */
"29 49 128 2 ",
"   c #7EFFFA",
".  c #7FFFFB",
"X  c #7FFFFC",
"o  c #80FDFF",
"O  c #81FEFF",
"+  c #82FFFF",
"@  c #81FFFC",
"#  c #80FEFA",
"$  c #7FFDF9",
"%  c #80FEFB",
"&  c #82FFFD",
"*  c #83FFFD",
"=  c #7EFFFF",
"-  c #7FFFFF",
";  c #7FFFFD",
":  c #80FEFD",
">  c #7BFFFD",
",  c #7AFFFC",
"<  c #7BFFFC",
"1  c #7AFFFD",
"2  c #82FDFB",
"3  c #83FEFC",
"4  c #83FDFF",
"5  c #7DFFFA",
"6  c #7DFFFC",
"7  c #7CFFFC",
"8  c #7CFFFF",
"9  c #7BFFFF",
"0  c #7FFFFE",
"q  c #7CFFFE",
"w  c #7EFEFF",
"e  c #81FFFB",
"r  c #81FFF9",
"t  c #80FFFF",
"y  c #81FFFE",
"u  c #80FFFD",
"i  c #5CB9B8",
"p  c #2D5B5B",
"a  c #102121",
"s  c #040909",
"d  c #060C0C",
"f  c #142828",
"g  c #346868",
"h  c #68D2D1",
"j  c #7BF8F7",
"k  c #295252",
"l  c black",
"z  c #010202",
"x  c #3F7F7F",
"c  c #2A5454",
"v  c #0F1E1E",
"b  c #428685",
"n  c #59B4B3",
"m  c #58B1B0",
"M  c #3D7B7B",
"N  c #070F0F",
"B  c #468D8C",
"V  c #58B2B1",
"C  c #1A3535",
"Z  c #78F2F1",
"A  c #6FDFDE",
"S  c #0B1616",
"D  c #050A0A",
"F  c #6FE0DF",
"G  c #204040",
"H  c #000101",
"J  c #6BD7D6",
"K  c #50A2A1",
"L  c #3C7979",
"P  c #71E3E2",
"I  c #204141",
"U  c #7CFAF9",
"Y  c #0E1D1D",
"T  c #51A3A2",
"R  c #418382",
"E  c #264C4C",
"W  c #6DDBDA",
"Q  c #3C7878",
"!  c #56AEAD",
"~  c #3A7575",
"^  c #57AFAE",
"/  c #2E5C5C",
"(  c #66CDCC",
")  c #499493",
"_  c #489190",
"`  c #244949",
"'  c #214242",
"]  c #55ABAA",
"[  c #3B7777",
"{  c #224545",
"}  c #71E4E3",
"|  c #54AAA9",
" . c #4FA09F",
".. c #438887",
"X. c #306060",
"o. c #65CBCA",
"O. c #47908F",
"+. c #4B9796",
"@. c #55ACAB",
"#. c #366D6D",
"$. c #5DBCBB",
"%. c #3F7E7E",
"&. c #1E3D3D",
"*. c #76EDEC",
"=. c #75EBEA",
"-. c #020505",
";. c #1B3737",
":. c #77F0EF",
">. c #172E2E",
",. c #264D4D",
"<. c #438786",
"1. c #61C4C3",
"2. c #152A2A",
"3. c #64C9C8",
"4. c #0C1818",
"5. c #77EFEE",
"6. c #346969",
"7. c #0C1919",
"8. c #408180",
"9. c #356B6B",
"0. c #030707",
"q. c #7EFDFC",
"w. c #336666",
"e. c #50A1A0",
"r. c #2F5F5F",
"t. c #040808",
"y. c #070E0E",
"u. c #172F2F",
/* pixels */
"        . . . . X X X X X X X X o O + + + @ # $ % @ @ & * ",
"= = - - - - - - ; ; ; ; ; ; ; ; % % : o o O - - > , < 1 1 ",
"2 2 3 3 3 3 3 3 4 4 4 4 4 4 4 4 5 6 7 8 9 9 8 8 - 0 0 0 0 ",
"8 8 8 8 8 8 8 8 q q q q q q q q w o O + + @ e r - t t y u ",
"0 0 0 0 0 0 0 0 0 0 0 0 0 0 0 0 0 0 0 0 0 0 0 0 0 0 0 0 0 ",
"0 0 0 0 0 0 0 0 0 0 0 0 0 0 0 0 0 0 0 0 0 0 0 0 0 0 0 0 0 ",
"0 0 0 0 0 0 0 0 0 0 0 0 0 0 0 0 0 0 0 0 0 0 0 0 0 0 0 0 0 ",
"0 0 0 0 0 0 0 0 0 0 0 0 0 0 0 0 0 0 0 0 0 0 0 0 0 0 0 0 0 ",
"0 0 0 0 0 0 0 0 0 0 0 0 0 0 0 0 0 0 0 0 0 0 0 0 0 0 0 0 0 ",
"0 0 0 0 0 0 0 0 0 0 0 0 0 0 0 0 0 0 0 0 0 0 0 0 0 0 0 0 0 ",
"0 0 0 0 0 0 0 0 0 0 0 0 0 0 0 0 0 0 0 0 0 0 0 0 0 0 0 0 0 ",
"0 0 0 0 0 0 0 0 0 0 0 0 0 0 0 0 0 0 0 0 0 0 0 0 0 0 0 0 0 ",
"0 0 0 0 0 0 0 0 0 0 0 0 0 0 0 0 0 0 0 0 0 0 0 0 0 0 0 0 0 ",
"0 0 0 0 0 0 0 0 0 0 0 0 0 0 0 0 0 0 0 0 0 0 0 0 0 0 0 0 0 ",
"0 0 0 0 0 0 0 0 0 0 i p a s d f g h 0 0 0 0 0 0 0 0 0 0 0 ",
"0 0 0 0 0 0 0 0 j k l l l l l l l z x 0 0 0 0 0 0 0 0 0 0 ",
"0 0 0 0 0 0 0 0 c l l v b n m M N l l B 0 0 0 0 0 0 0 0 0 ",
"0 0 0 0 0 0 0 V l l C Z 0 0 0 0 A S l D F 0 0 0 0 0 0 0 0 ",
"0 0 0 0 0 0 0 G l H J 0 0 0 0 0 0 K l l L 0 0 0 0 0 0 0 0 ",
"0 0 0 0 0 0 P H l I 0 0 0 0 0 0 0 U N l Y 0 0 0 0 0 0 0 0 ",
"0 0 0 0 0 0 T l l R 0 0 0 0 0 0 0 0 E l l W 0 0 0 0 0 0 0 ",
"0 0 0 0 0 0 Q l l ! 0 0 0 0 0 0 0 0 ~ l l ^ 0 0 0 0 0 0 0 ",
"0 0 0 0 0 0 / l l ( 0 0 0 0 0 0 0 0 ) l l _ 0 0 0 0 0 0 0 ",
"0 0 0 0 0 0 ` l l W 0 0 0 0 0 0 0 0 K l l x 0 0 0 0 0 0 0 ",
"0 0 0 0 0 0 ' l l P 0 0 0 0 0 0 0 0 ] l l [ 0 0 0 0 0 0 0 ",
"0 0 0 0 0 0 { l l } 0 0 0 0 0 0 0 0 | l l M 0 0 0 0 0 0 0 ",
"0 0 0 0 0 0 k l l W 0 0 0 0 0 0 0 0  .l l ..0 0 0 0 0 0 0 ",
"0 0 0 0 0 0 X.l l o.0 0 0 0 0 0 0 0 O.l l +.0 0 0 0 0 0 0 ",
"0 0 0 0 0 0 R l l @.0 0 0 0 0 0 0 0 #.l l $.0 0 0 0 0 0 0 ",
"0 0 0 0 0 0 V l l %.0 0 0 0 0 0 0 0 &.l l *.0 0 0 0 0 0 0 ",
"0 0 0 0 0 0 =.-.l ;.0 0 0 0 0 0 0 :.-.l >.0 0 0 0 0 0 0 0 ",
"0 0 0 0 0 0 0 ,.l l o.0 0 0 0 0 0 <.l l B 0 0 0 0 0 0 0 0 ",
"0 0 0 0 0 0 0 1.H l 2.=.0 0 0 0 3.s l 4.5.0 0 0 0 0 0 0 0 ",
"0 0 0 0 0 0 0 0 6.l l 7.8.m ] 9.0.l z ! 0 0 0 0 0 0 0 0 0 ",
"0 0 0 0 0 0 0 0 q.w.l l l l l l l s e.0 0 0 0 0 0 0 0 0 0 ",
"0 0 0 0 0 0 0 0 0 0 1.r.a t.y.u.~ P 0 0 0 0 0 0 0 0 0 0 0 ",
"0 0 0 0 0 0 0 0 0 0 0 0 0 0 0 0 0 0 0 0 0 0 0 0 0 0 0 0 0 ",
"0 0 0 0 0 0 0 0 0 0 0 0 0 0 0 0 0 0 0 0 0 0 0 0 0 0 0 0 0 ",
"0 0 0 0 0 0 0 0 0 0 0 0 0 0 0 0 0 0 0 0 0 0 0 0 0 0 0 0 0 ",
"0 0 0 0 0 0 0 0 0 0 0 0 0 0 0 0 0 0 0 0 0 0 0 0 0 0 0 0 0 ",
"0 0 0 0 0 0 0 0 0 0 0 0 0 0 0 0 0 0 0 0 0 0 0 0 0 0 0 0 0 ",
"0 0 0 0 0 0 0 0 0 0 0 0 0 0 0 0 0 0 0 0 0 0 0 0 0 0 0 0 0 ",
"0 0 0 0 0 0 0 0 0 0 0 0 0 0 0 0 0 0 0 0 0 0 0 0 0 0 0 0 0 ",
"0 0 0 0 0 0 0 0 0 0 0 0 0 0 0 0 0 0 0 0 0 0 0 0 0 0 0 0 0 ",
"0 0 0 0 0 0 0 0 0 0 0 0 0 0 0 0 0 0 0 0 0 0 0 0 0 0 0 0 0 ",
"0 0 0 0 0 0 0 0 0 0 0 0 0 0 0 0 0 0 0 0 0 0 0 0 0 0 0 0 0 ",
"0 0 0 0 0 0 0 0 0 0 0 0 0 0 0 0 0 0 0 0 0 0 0 0 0 0 0 0 0 ",
"0 0 0 0 0 0 0 0 0 0 0 0 0 0 0 0 0 0 0 0 0 0 0 0 0 0 0 0 0 ",
"0 0 0 0 0 0 0 0 0 0 0 0 0 0 0 0 0 0 0 0 0 0 0 0 0 0 0 0 0 "
};
