/* XPM */
static char *result[] = {
/* columns rows colors chars-per-pixel */
"29 49 64 1 ",
"  c #7EFFFA",
". c #7FFFFB",
"X c #7FFFFC",
"o c #80FDFF",
"O c #81FEFF",
"+ c #82FFFF",
"@ c #81FFFC",
"# c #80FEFA",
"$ c #7FFDF9",
"% c #80FEFB",
"& c #82FFFD",
"* c #83FFFD",
"= c #7EFFFF",
"- c #7FFFFF",
"; c #7FFFFD",
": c #80FEFD",
"> c #7BFFFD",
", c #7AFFFC",
"< c #7BFFFC",
"1 c #7AFFFD",
"2 c #82FDFB",
"3 c #83FEFC",
"4 c #83FDFF",
"5 c #7DFFFA",
"6 c #7DFFFC",
"7 c #7CFFFC",
"8 c #7CFFFF",
"9 c #7BFFFF",
"0 c #7FFFFE",
"q c #7CFFFE",
"w c #7EFEFF",
"e c #81FFFB",
"r c #81FFF9",
"t c #80FFFF",
"y c #81FFFE",
"u c #80FFFD",
"i c #7EFDFC",
"p c #448988",
"a c #030606",
"s c black",
"d c #0F1F1F",
"f c #6EDDDC",
"g c #1E3C3C",
"h c #4C9998",
"j c #060C0C",
"k c #070E0E",
"l c #010303",
"z c #295252",
"x c #1C3939",
"c c #6EDEDD",
"v c #050B0B",
"b c #091313",
"n c #3E7D7D",
"m c #7DFBFA",
"M c #1A3434",
"N c #61C4C3",
"B c #7AF6F5",
"V c #65CCCB",
"C c #51A3A2",
"Z c #030707",
"A c #0A1414",
"S c #74EAE9",
"D c #376F6F",
"F c #61C3C2",
/* pixels */
"    ....XXXXXXXXoO+++@#$%@@&*",
"==------;;;;;;;;%%:ooO-->,<11",
"223333334444444456789988-0000",
"88888888qqqqqqqqwoO++@er-ttyu",
"00000000000000000000000000000",
"00000000000000000000000000000",
"00000000000000000000000000000",
"00000000000000000000000000000",
"00000000000000000000000000000",
"00000000000000000000000000000",
"00000000000000000000000000000",
"00000000000000000000000000000",
"00000000000ipasd0000000000000",
"0000000000fgsssd0000000000000",
"000000000hjsklsd0000000000000",
"00000000zssxcvsd0000000000000",
"00000000blnm0vsd0000000000000",
"00000000MN000vsd0000000000000",
"00000000B0000vsd0000000000000",
"0000000000000vsd0000000000000",
"0000000000000vsd0000000000000",
"0000000000000vsd0000000000000",
"0000000000000vsd0000000000000",
"0000000000000vsd0000000000000",
"0000000000000vsd0000000000000",
"0000000000000vsd0000000000000",
"0000000000000vsd0000000000000",
"0000000000000vsd0000000000000",
"0000000000000vsd0000000000000",
"0000000000000vsd0000000000000",
"0000000000000vsd0000000000000",
"0000000VCCCCCZsACCCCCS0000000",
"0000000DsssssssssssssF0000000",
"0000000DsssssssssssssF0000000",
"00000000000000000000000000000",
"00000000000000000000000000000",
"00000000000000000000000000000",
"00000000000000000000000000000",
"00000000000000000000000000000",
"00000000000000000000000000000",
"00000000000000000000000000000",
"00000000000000000000000000000",
"00000000000000000000000000000",
"00000000000000000000000000000",
"00000000000000000000000000000",
"00000000000000000000000000000",
"00000000000000000000000000000",
"00000000000000000000000000000",
"00000000000000000000000000000"
};
