/* XPM */
static char *result[] = {
/* columns rows colors chars-per-pixel */
"29 49 116 2 ",
"   c #7EFFFA",
".  c #7FFFFB",
"X  c #7FFFFC",
"o  c #80FDFF",
"O  c #81FEFF",
"+  c #82FFFF",
"@  c #81FFFC",
"#  c #80FEFA",
"$  c #7FFDF9",
"%  c #80FEFB",
"&  c #82FFFD",
"*  c #83FFFD",
"=  c #7EFFFF",
"-  c #7FFFFF",
";  c #7FFFFD",
":  c #80FEFD",
">  c #7BFFFD",
",  c #7AFFFC",
"<  c #7BFFFC",
"1  c #7AFFFD",
"2  c #82FDFB",
"3  c #83FEFC",
"4  c #83FDFF",
"5  c #7DFFFA",
"6  c #7DFFFC",
"7  c #7CFFFC",
"8  c #7CFFFF",
"9  c #7BFFFF",
"0  c #7FFFFE",
"q  c #7CFFFE",
"w  c #7EFEFF",
"e  c #81FFFB",
"r  c #81FFF9",
"t  c #80FFFF",
"y  c #81FFFE",
"u  c #80FFFD",
"i  c #7DFCFB",
"p  c #55ABAA",
"a  c #295353",
"s  c #0E1D1D",
"d  c #040808",
"f  c #040909",
"g  c #0F1E1E",
"h  c #285050",
"j  c #52A6A5",
"k  c #7DFBFA",
"l  c #6FDFDE",
"z  c #1A3535",
"x  c black",
"c  c #193333",
"v  c #71E3E2",
"b  c #76EDEC",
"n  c #102121",
"m  c #0A1515",
"M  c #3D7B7B",
"N  c #53A7A6",
"B  c #50A1A0",
"V  c #387171",
"C  c #060C0C",
"Z  c #162C2C",
"A  c #7CFAF9",
"S  c #346969",
"D  c #1D3B3B",
"F  c #78F2F1",
"G  c #71E4E3",
"H  c #0D1A1A",
"J  c #4E9D9C",
"K  c #7AF6F5",
"L  c #050A0A",
"P  c #020505",
"I  c #73E8E7",
"U  c #53A8A7",
"Y  c #6EDDDC",
"T  c #204141",
"R  c #142929",
"E  c #73E7E6",
"W  c #183131",
"Q  c #58B1B0",
"!  c #346868",
"~  c #7EFEFD",
"^  c #1F3E3E",
"/  c #65CBCA",
"(  c #438786",
")  c #2F5E5E",
"_  c #499493",
"`  c #000101",
"'  c #1B3636",
"]  c #79F4F3",
"[  c #7EFDFC",
"{  c #387070",
"}  c #74EAE9",
"|  c #254B4B",
" . c #1D3A3A",
".. c #152A2A",
"X. c #2C5858",
"o. c #7BF7F6",
"O. c #62C6C5",
"+. c #091212",
"@. c #428584",
"#. c #5FC0BF",
"$. c #050B0B",
"%. c #55ACAB",
"&. c #67D0CF",
"*. c #070E0E",
"=. c #63C7C6",
"-. c #79F3F2",
";. c #122424",
":. c #61C3C2",
">. c #356B6B",
",. c #50A2A1",
"<. c #6EDEDD",
"1. c #51A3A2",
"2. c #76EEED",
"3. c #4D9C9B",
"4. c #67CFCE",
"5. c #4D9B9A",
/* pixels */
"        . . . . X X X X X X X X o O + + + @ # $ % @ @ & * ",
"= = - - - - - - ; ; ; ; ; ; ; ; % % : o o O - - > , < 1 1 ",
"2 2 3 3 3 3 3 3 4 4 4 4 4 4 4 4 5 6 7 8 9 9 8 8 - 0 0 0 0 ",
"8 8 8 8 8 8 8 8 q q q q q q q q w o O + + @ e r - t t y u ",
"0 0 0 0 0 0 0 0 0 0 0 0 0 0 0 0 0 0 0 0 0 0 0 0 0 0 0 0 0 ",
"0 0 0 0 0 0 0 0 0 0 0 0 0 0 0 0 0 0 0 0 0 0 0 0 0 0 0 0 0 ",
"0 0 0 0 0 0 0 0 0 0 0 0 0 0 0 0 0 0 0 0 0 0 0 0 0 0 0 0 0 ",
"0 0 0 0 0 0 0 0 0 0 0 0 0 0 0 0 0 0 0 0 0 0 0 0 0 0 0 0 0 ",
"0 0 0 0 0 0 0 0 0 0 0 0 0 0 0 0 0 0 0 0 0 0 0 0 0 0 0 0 0 ",
"0 0 0 0 0 0 0 0 0 0 0 0 0 0 0 0 0 0 0 0 0 0 0 0 0 0 0 0 0 ",
"0 0 0 0 0 0 0 0 0 0 0 0 0 0 0 0 0 0 0 0 0 0 0 0 0 0 0 0 0 ",
"0 0 0 0 0 0 0 0 0 0 0 0 0 0 0 0 0 0 0 0 0 0 0 0 0 0 0 0 0 ",
"0 0 0 0 0 0 0 0 0 0 0 0 0 0 0 0 0 0 0 0 0 0 0 0 0 0 0 0 0 ",
"0 0 0 0 0 0 0 0 0 0 0 0 0 0 0 0 0 0 0 0 0 0 0 0 0 0 0 0 0 ",
"0 0 0 0 0 0 0 0 0 i p a s d f g h j k 0 0 0 0 0 0 0 0 0 0 ",
"0 0 0 0 0 0 0 0 l z x x x x x x x x c v 0 0 0 0 0 0 0 0 0 ",
"0 0 0 0 0 0 0 b n x x m M N B V C x x Z A 0 0 0 0 0 0 0 0 ",
"0 0 0 0 0 0 0 S x x D F 0 0 0 0 G H x x J 0 0 0 0 0 0 0 0 ",
"0 0 0 0 0 0 K L x P I 0 0 0 0 0 0 U x x h 0 0 0 0 0 0 0 0 ",
"0 0 0 0 0 0 Y T R h 0 0 0 0 0 0 0 E x x W 0 0 0 0 0 0 0 0 ",
"0 0 0 0 0 0 0 0 0 0 0 0 0 0 0 0 0 G x x z 0 0 0 0 0 0 0 0 ",
"0 0 0 0 0 0 0 0 0 0 0 0 0 0 0 0 0 Q x x ! 0 0 0 0 0 0 0 0 ",
"0 0 0 0 0 0 0 0 0 0 0 0 0 0 0 0 ~ ^ x x / 0 0 0 0 0 0 0 0 ",
"0 0 0 0 0 0 0 0 0 0 0 0 0 0 0 0 ( x x ) 0 0 0 0 0 0 0 0 0 ",
"0 0 0 0 0 0 0 0 0 0 0 0 0 0 0 _ ` x ' ] 0 0 0 0 0 0 0 0 0 ",
"0 0 0 0 0 0 0 0 0 0 0 0 0 [ { x x R } 0 0 0 0 0 0 0 0 0 0 ",
"0 0 0 0 0 0 0 0 0 0 0 0 F | x x  .b 0 0 0 0 0 0 0 0 0 0 0 ",
"0 0 0 0 0 0 0 0 0 0 0 Y ..x x X.o.0 0 0 0 0 0 0 0 0 0 0 0 ",
"0 0 0 0 0 0 0 0 0 0 O.+.x ` @.0 0 0 0 0 0 0 0 0 0 0 0 0 0 ",
"0 0 0 0 0 0 0 0 0 #.$.x f %.0 0 0 0 0 0 0 0 0 0 0 0 0 0 0 ",
"0 0 0 0 0 0 0 0 &.*.x *.=.0 0 0 0 0 0 0 0 0 0 0 0 0 0 0 0 ",
"0 0 0 0 0 0 0 -.;.x L :.0 0 0 0 0 0 0 0 0 0 0 0 0 0 0 0 0 ",
"0 0 0 0 0 0 0 >.x x ,.0 0 0 0 0 0 0 0 0 0 0 0 0 0 0 0 0 0 ",
"0 0 0 0 0 0 <.P x m 1.1.1.1.1.1.1.1.1.1.1.2.0 0 0 0 0 0 0 ",
"0 0 0 0 0 0 3.x x x x x x x x x x x x x x 4.0 0 0 0 0 0 0 ",
"0 0 0 0 0 0 5.x x x x x x x x x x x x x x 4.0 0 0 0 0 0 0 ",
"0 0 0 0 0 0 0 0 0 0 0 0 0 0 0 0 0 0 0 0 0 0 0 0 0 0 0 0 0 ",
"0 0 0 0 0 0 0 0 0 0 0 0 0 0 0 0 0 0 0 0 0 0 0 0 0 0 0 0 0 ",
"0 0 0 0 0 0 0 0 0 0 0 0 0 0 0 0 0 0 0 0 0 0 0 0 0 0 0 0 0 ",
"0 0 0 0 0 0 0 0 0 0 0 0 0 0 0 0 0 0 0 0 0 0 0 0 0 0 0 0 0 ",
"0 0 0 0 0 0 0 0 0 0 0 0 0 0 0 0 0 0 0 0 0 0 0 0 0 0 0 0 0 ",
"0 0 0 0 0 0 0 0 0 0 0 0 0 0 0 0 0 0 0 0 0 0 0 0 0 0 0 0 0 ",
"0 0 0 0 0 0 0 0 0 0 0 0 0 0 0 0 0 0 0 0 0 0 0 0 0 0 0 0 0 ",
"0 0 0 0 0 0 0 0 0 0 0 0 0 0 0 0 0 0 0 0 0 0 0 0 0 0 0 0 0 ",
"0 0 0 0 0 0 0 0 0 0 0 0 0 0 0 0 0 0 0 0 0 0 0 0 0 0 0 0 0 ",
"0 0 0 0 0 0 0 0 0 0 0 0 0 0 0 0 0 0 0 0 0 0 0 0 0 0 0 0 0 ",
"0 0 0 0 0 0 0 0 0 0 0 0 0 0 0 0 0 0 0 0 0 0 0 0 0 0 0 0 0 ",
"0 0 0 0 0 0 0 0 0 0 0 0 0 0 0 0 0 0 0 0 0 0 0 0 0 0 0 0 0 ",
"0 0 0 0 0 0 0 0 0 0 0 0 0 0 0 0 0 0 0 0 0 0 0 0 0 0 0 0 0 "
};
