/* XPM */
static char *result[] = {
/* columns rows colors chars-per-pixel */
"29 49 128 2 ",
"   c #7EFFFA",
".  c #7FFFFB",
"X  c #7FFFFC",
"o  c #80FDFF",
"O  c #81FEFF",
"+  c #82FFFF",
"@  c #81FFFC",
"#  c #80FEFA",
"$  c #7FFDF9",
"%  c #80FEFB",
"&  c #82FFFD",
"*  c #83FFFD",
"=  c #7EFFFF",
"-  c #7FFFFF",
";  c #7FFFFD",
":  c #80FEFD",
">  c #7BFFFD",
",  c #7AFFFC",
"<  c #7BFFFC",
"1  c #7AFFFD",
"2  c #82FDFB",
"3  c #83FEFC",
"4  c #83FDFF",
"5  c #7DFFFA",
"6  c #7DFFFC",
"7  c #7CFFFC",
"8  c #7CFFFF",
"9  c #7BFFFF",
"0  c #7FFFFE",
"q  c #7CFFFE",
"w  c #7EFEFF",
"e  c #81FFFB",
"r  c #81FFF9",
"t  c #80FFFF",
"y  c #81FFFE",
"u  c #80FFFD",
"i  c #79F4F3",
"p  c #4B9796",
"a  c #244848",
"s  c #0C1818",
"d  c #020505",
"f  c #060C0C",
"g  c #112222",
"h  c #2C5858",
"j  c #56AEAD",
"k  c #7DFCFB",
"l  c #60C2C1",
"z  c #0E1C1C",
"x  c black",
"c  c #1C3838",
"v  c #71E4E3",
"b  c #67CFCE",
"n  c #040808",
"m  c #183030",
"M  c #458B8A",
"N  c #56ADAC",
"B  c #54AAA9",
"V  c #3B7676",
"C  c #091313",
"Z  c #172F2F",
"A  c #7DFBFA",
"S  c #1B3737",
"D  c #3C7979",
"F  c #7EFEFD",
"G  c #72E5E4",
"H  c #0F1F1F",
"J  c #50A2A1",
"K  c #69D4D3",
"L  c #4FA09F",
"P  c #2C5959",
"I  c #65CCCB",
"U  c #2E5D5D",
"Y  c #244949",
"T  c #6CDAD9",
"R  c #1F3E3E",
"E  c #69D3D2",
"W  c #264C4C",
"Q  c #418483",
"!  c #55ACAB",
"~  c #030707",
"^  c #0E1D1D",
"/  c #77F0EF",
"(  c #65CBCA",
")  c #458C8B",
"_  c #387171",
"`  c #122525",
"'  c #183131",
"]  c #6DDBDA",
"[  c #3F7F7F",
"{  c #1A3434",
"}  c #7EFDFC",
"|  c #060D0D",
" . c #326464",
".. c #7BF7F6",
"X. c #70E1E0",
"o. c #52A6A5",
"O. c #295252",
"+. c #0A1515",
"@. c #51A3A2",
"#. c #1F3F3F",
"$. c #7CF9F8",
"%. c #376E6E",
"&. c #336767",
"*. c #091212",
"=. c #5AB5B4",
"-. c #316262",
";. c #7CFAF9",
":. c #0F1E1E",
">. c #6AD5D4",
",. c #70E2E1",
"<. c #4A9594",
"1. c #346969",
"2. c #162D2D",
"3. c #468D8C",
"4. c #204040",
"5. c #478F8E",
"6. c #418382",
"7. c #142929",
"8. c #5FC0BF",
"9. c #489190",
"0. c #0B1616",
"q. c #72E6E5",
"w. c #3F807F",
"e. c #0B1717",
"r. c #030606",
"t. c #0D1B1B",
"y. c #254A4A",
"u. c #499493",
/* pixels */
"        . . . . X X X X X X X X o O + + + @ # $ % @ @ & * ",
"= = - - - - - - ; ; ; ; ; ; ; ; % % : o o O - - > , < 1 1 ",
"2 2 3 3 3 3 3 3 4 4 4 4 4 4 4 4 5 6 7 8 9 9 8 8 - 0 0 0 0 ",
"8 8 8 8 8 8 8 8 q q q q q q q q w o O + + @ e r - t t y u ",
"0 0 0 0 0 0 0 0 0 0 0 0 0 0 0 0 0 0 0 0 0 0 0 0 0 0 0 0 0 ",
"0 0 0 0 0 0 0 0 0 0 0 0 0 0 0 0 0 0 0 0 0 0 0 0 0 0 0 0 0 ",
"0 0 0 0 0 0 0 0 0 0 0 0 0 0 0 0 0 0 0 0 0 0 0 0 0 0 0 0 0 ",
"0 0 0 0 0 0 0 0 0 0 0 0 0 0 0 0 0 0 0 0 0 0 0 0 0 0 0 0 0 ",
"0 0 0 0 0 0 0 0 0 0 0 0 0 0 0 0 0 0 0 0 0 0 0 0 0 0 0 0 0 ",
"0 0 0 0 0 0 0 0 0 0 0 0 0 0 0 0 0 0 0 0 0 0 0 0 0 0 0 0 0 ",
"0 0 0 0 0 0 0 0 0 0 0 0 0 0 0 0 0 0 0 0 0 0 0 0 0 0 0 0 0 ",
"0 0 0 0 0 0 0 0 0 0 0 0 0 0 0 0 0 0 0 0 0 0 0 0 0 0 0 0 0 ",
"0 0 0 0 0 0 0 0 0 0 0 0 0 0 0 0 0 0 0 0 0 0 0 0 0 0 0 0 0 ",
"0 0 0 0 0 0 0 0 0 0 0 0 0 0 0 0 0 0 0 0 0 0 0 0 0 0 0 0 0 ",
"0 0 0 0 0 0 0 0 0 i p a s d f g h j k 0 0 0 0 0 0 0 0 0 0 ",
"0 0 0 0 0 0 0 0 l z x x x x x x x x c v 0 0 0 0 0 0 0 0 0 ",
"0 0 0 0 0 0 0 b n x x m M N B V C x x Z A 0 0 0 0 0 0 0 0 ",
"0 0 0 0 0 0 0 S x x D F 0 0 0 0 G H x x J 0 0 0 0 0 0 0 0 ",
"0 0 0 0 0 0 K x x m F 0 0 0 0 0 0 L x x P 0 0 0 0 0 0 0 0 ",
"0 0 0 0 0 0 I U Y p 0 0 0 0 0 0 0 T x x R 0 0 0 0 0 0 0 0 ",
"0 0 0 0 0 0 0 0 0 0 0 0 0 0 0 0 0 E x x W 0 0 0 0 0 0 0 0 ",
"0 0 0 0 0 0 0 0 0 0 0 0 0 0 0 0 0 Q x x M 0 0 0 0 0 0 0 0 ",
"0 0 0 0 0 0 0 0 0 0 0 0 0 0 0 0 ! ~ x ^ / 0 0 0 0 0 0 0 0 ",
"0 0 0 0 0 0 0 0 0 0 0 ( p ) _ ` x x ' ] 0 0 0 0 0 0 0 0 0 ",
"0 0 0 0 0 0 0 0 0 0 0 [ x x x x { ! } 0 0 0 0 0 0 0 0 0 0 ",
"0 0 0 0 0 0 0 0 0 0 0 [ x x x x x |  .v 0 0 0 0 0 0 0 0 0 ",
"0 0 0 0 0 0 0 0 0 0 0 0 0 ..X.o.O.x x +.E 0 0 0 0 0 0 0 0 ",
"0 0 0 0 0 0 0 0 0 0 0 0 0 0 0 0 0 @.x x m F 0 0 0 0 0 0 0 ",
"0 0 0 0 0 0 0 0 0 0 0 0 0 0 0 0 0 0 #.x x I 0 0 0 0 0 0 0 ",
"0 0 0 0 0 0 0 0 $.} 0 0 0 0 0 0 0 0 %.x x @.0 0 0 0 0 0 0 ",
"0 0 0 0 0 0 &.*.x =.0 0 0 0 0 0 0 0 -.x x ! 0 0 0 0 0 0 0 ",
"0 0 0 0 0 0 Q x x h 0 0 0 0 0 0 0 ;.:.x x >.0 0 0 0 0 0 0 ",
"0 0 0 0 0 0 ,.n x x <.0 0 0 0 0 k 1.x x 2.0 0 0 0 0 0 0 0 ",
"0 0 0 0 0 0 0 3.x x x 4.5.N B 6.7.x x d 8.0 0 0 0 0 0 0 0 ",
"0 0 0 0 0 0 0 0 9.~ x x x x x x x x 0.=.0 0 0 0 0 0 0 0 0 ",
"0 0 0 0 0 0 0 0 0 q.w.R e.r.n t.y.u./ 0 0 0 0 0 0 0 0 0 0 ",
"0 0 0 0 0 0 0 0 0 0 0 0 0 0 0 0 0 0 0 0 0 0 0 0 0 0 0 0 0 ",
"0 0 0 0 0 0 0 0 0 0 0 0 0 0 0 0 0 0 0 0 0 0 0 0 0 0 0 0 0 ",
"0 0 0 0 0 0 0 0 0 0 0 0 0 0 0 0 0 0 0 0 0 0 0 0 0 0 0 0 0 ",
"0 0 0 0 0 0 0 0 0 0 0 0 0 0 0 0 0 0 0 0 0 0 0 0 0 0 0 0 0 ",
"0 0 0 0 0 0 0 0 0 0 0 0 0 0 0 0 0 0 0 0 0 0 0 0 0 0 0 0 0 ",
"0 0 0 0 0 0 0 0 0 0 0 0 0 0 0 0 0 0 0 0 0 0 0 0 0 0 0 0 0 ",
"0 0 0 0 0 0 0 0 0 0 0 0 0 0 0 0 0 0 0 0 0 0 0 0 0 0 0 0 0 ",
"0 0 0 0 0 0 0 0 0 0 0 0 0 0 0 0 0 0 0 0 0 0 0 0 0 0 0 0 0 ",
"0 0 0 0 0 0 0 0 0 0 0 0 0 0 0 0 0 0 0 0 0 0 0 0 0 0 0 0 0 ",
"0 0 0 0 0 0 0 0 0 0 0 0 0 0 0 0 0 0 0 0 0 0 0 0 0 0 0 0 0 ",
"0 0 0 0 0 0 0 0 0 0 0 0 0 0 0 0 0 0 0 0 0 0 0 0 0 0 0 0 0 ",
"0 0 0 0 0 0 0 0 0 0 0 0 0 0 0 0 0 0 0 0 0 0 0 0 0 0 0 0 0 ",
"0 0 0 0 0 0 0 0 0 0 0 0 0 0 0 0 0 0 0 0 0 0 0 0 0 0 0 0 0 "
};
