/* XPM */
static char *result[] = {
/* columns rows colors chars-per-pixel */
"29 49 82 1 ",
"  c #7EFFFA",
". c #7FFFFB",
"X c #7FFFFC",
"o c #80FDFF",
"O c #81FEFF",
"+ c #82FFFF",
"@ c #81FFFC",
"# c #80FEFA",
"$ c #7FFDF9",
"% c #80FEFB",
"& c #82FFFD",
"* c #83FFFD",
"= c #7EFFFF",
"- c #7FFFFF",
"; c #7FFFFD",
": c #80FEFD",
"> c #7BFFFD",
", c #7AFFFC",
"< c #7BFFFC",
"1 c #7AFFFD",
"2 c #82FDFB",
"3 c #83FEFC",
"4 c #83FDFF",
"5 c #7DFFFA",
"6 c #7DFFFC",
"7 c #7CFFFC",
"8 c #7CFFFF",
"9 c #7BFFFF",
"0 c #7FFFFE",
"q c #7CFFFE",
"w c #7EFEFF",
"e c #81FFFB",
"r c #81FFF9",
"t c #80FFFF",
"y c #81FFFE",
"u c #80FFFD",
"i c #3C7878",
"p c black",
"a c #1D3B3B",
"s c #63C7C6",
"d c #010303",
"f c #7AF6F5",
"g c #132626",
"h c #376E6E",
"j c #0C1919",
"k c #0A1414",
"l c #5FBFBE",
"z c #000101",
"x c #4E9D9C",
"c c #0D1B1B",
"v c #79F3F2",
"b c #102020",
"n c #1E3D3D",
"m c #7EFDFC",
"M c #326565",
"N c #050B0B",
"B c #6DDCDB",
"V c #5BB7B6",
"C c #499493",
"Z c #77EFEE",
"A c #214242",
"S c #7EFEFD",
"D c #2D5B5B",
"F c #060D0D",
"G c #6FDFDE",
"H c #56AEAD",
"J c #4C9998",
"K c #74EAE9",
"L c #0B1616",
"P c #234646",
"I c #295353",
"U c #070F0F",
"Y c #71E3E2",
"T c #51A4A3",
"R c #4F9F9E",
"E c #73E8E7",
"W c #081111",
"Q c #67CFCE",
"! c #183030",
"~ c #6AD6D5",
"^ c #5DBBBA",
"/ c #112323",
/* pixels */
"    ....XXXXXXXXoO+++@#$%@@&*",
"==------;;;;;;;;%%:ooO-->,<11",
"223333334444444456789988-0000",
"88888888qqqqqqqqwoO++@er-ttyu",
"00000000000000000000000000000",
"00000000000000000000000000000",
"00000000000000000000000000000",
"00000000000000000000000000000",
"00000000000000000000000000000",
"00000000000000000000000000000",
"00000000000000000000000000000",
"00000000000000000000000000000",
"00000000000000000000000000000",
"00000000000000000000000000000",
"000000000000000ippa0000000000",
"00000000000000sdppa0000000000",
"0000000000000fgpppa0000000000",
"0000000000000hpjkpa0000000000",
"000000000000lzpxcpa0000000000",
"00000000000vbpnmcpa0000000000",
"00000000000MpNB0cpa0000000000",
"0000000000VppC00cpa0000000000",
"000000000ZcpAS00cpa0000000000",
"000000000DpFG000cpa0000000000",
"00000000HppJ0000cpa0000000000",
"0000000KLpP00000cpa0000000000",
"0000000IpUY00000cpa0000000000",
"000000TppR000000cpa0000000000",
"00000EWpaQQQQQQQLp!QQ~0000000",
"00000^ppppppppppppppp/0000000",
"00000^ppppppppppppppp/0000000",
"0000000000000000cpa0000000000",
"0000000000000000cpa0000000000",
"0000000000000000cpa0000000000",
"0000000000000000cpa0000000000",
"0000000000000000cpa0000000000",
"00000000000000000000000000000",
"00000000000000000000000000000",
"00000000000000000000000000000",
"00000000000000000000000000000",
"00000000000000000000000000000",
"00000000000000000000000000000",
"00000000000000000000000000000",
"00000000000000000000000000000",
"00000000000000000000000000000",
"00000000000000000000000000000",
"00000000000000000000000000000",
"00000000000000000000000000000",
"00000000000000000000000000000"
};
