/* XPM */
static char *result[] = {
/* columns rows colors chars-per-pixel */
"29 49 119 2 ",
"   c #7EFFFA",
".  c #7FFFFB",
"X  c #7FFFFC",
"o  c #80FDFF",
"O  c #81FEFF",
"+  c #82FFFF",
"@  c #81FFFC",
"#  c #80FEFA",
"$  c #7FFDF9",
"%  c #80FEFB",
"&  c #82FFFD",
"*  c #83FFFD",
"=  c #7EFFFF",
"-  c #7FFFFF",
";  c #7FFFFD",
":  c #80FEFD",
">  c #7BFFFD",
",  c #7AFFFC",
"<  c #7BFFFC",
"1  c #7AFFFD",
"2  c #82FDFB",
"3  c #83FEFC",
"4  c #83FDFF",
"5  c #7DFFFA",
"6  c #7DFFFC",
"7  c #7CFFFC",
"8  c #7CFFFF",
"9  c #7BFFFF",
"0  c #7FFFFE",
"q  c #7CFFFE",
"w  c #7EFEFF",
"e  c #81FFFB",
"r  c #81FFF9",
"t  c #80FFFF",
"y  c #81FFFE",
"u  c #80FFFD",
"i  c #4E9E9D",
"p  c black",
"a  c #69D3D2",
"s  c #468E8D",
"d  c #3F7E7E",
"f  c #418382",
"g  c #51A3A2",
"h  c #77F0EF",
"j  c #376E6E",
"k  c #6CDAD9",
"l  c #2E5D5D",
"z  c #74EAE9",
"x  c #264D4D",
"c  c #7CFAF9",
"v  c #1E3D3D",
"b  c #050A0A",
"n  c #162D2D",
"m  c #0D1A1A",
"M  c #75ECEB",
"N  c #63C8C7",
"B  c #5EBDBC",
"V  c #67D0CF",
"C  c #7BF8F7",
"Z  c #0E1C1C",
"A  c #152A2A",
"S  c #57AFAE",
"D  c #1C3939",
"F  c #000101",
"G  c #040909",
"H  c #2A5454",
"J  c #68D2D1",
"K  c #060C0C",
"L  c #010202",
"P  c #030606",
"I  c #50A1A0",
"U  c #7DFCFB",
"Y  c #0D1B1B",
"T  c #489291",
"R  c #6DDBDA",
"E  c #77EFEE",
"W  c #5BB8B7",
"Q  c #224545",
"!  c #020404",
"~  c #60C2C1",
"^  c #7BF7F6",
"/  c #376F6F",
"(  c #3D7A7A",
")  c #7EFEFD",
"_  c #346969",
"`  c #1A3434",
"'  c #0C1818",
"]  c #6CD9D8",
"[  c #326464",
"{  c #51A4A3",
"}  c #408281",
"|  c #489190",
" . c #3B7676",
".. c #4F9F9E",
"X. c #69D4D3",
"o. c #53A8A7",
"O. c #448A89",
"+. c #6FE0DF",
"@. c #214242",
"#. c #61C4C3",
"$. c #397272",
"%. c #081111",
"&. c #010303",
"*. c #57B0AF",
"=. c #71E4E3",
"-. c #3F807F",
";. c #3F7F7F",
":. c #274E4E",
">. c #5BB7B6",
",. c #54AAA9",
"<. c #387171",
"1. c #070F0F",
"2. c #1B3636",
"3. c #408180",
"4. c #285050",
"5. c #1A3535",
"6. c #091212",
"7. c #142929",
"8. c #326565",
/* pixels */
"        . . . . X X X X X X X X o O + + + @ # $ % @ @ & * ",
"= = - - - - - - ; ; ; ; ; ; ; ; % % : o o O - - > , < 1 1 ",
"2 2 3 3 3 3 3 3 4 4 4 4 4 4 4 4 5 6 7 8 9 9 8 8 - 0 0 0 0 ",
"8 8 8 8 8 8 8 8 q q q q q q q q w o O + + @ e r - t t y u ",
"0 0 0 0 0 0 0 0 0 0 0 0 0 0 0 0 0 0 0 0 0 0 0 0 0 0 0 0 0 ",
"0 0 0 0 0 0 0 0 0 0 0 0 0 0 0 0 0 0 0 0 0 0 0 0 0 0 0 0 0 ",
"0 0 0 0 0 0 0 0 0 0 0 0 0 0 0 0 0 0 0 0 0 0 0 0 0 0 0 0 0 ",
"0 0 0 0 0 0 0 0 0 0 0 0 0 0 0 0 0 0 0 0 0 0 0 0 0 0 0 0 0 ",
"0 0 0 0 0 0 0 0 0 0 0 0 0 0 0 0 0 0 0 0 0 0 0 0 0 0 0 0 0 ",
"0 0 0 0 0 0 0 0 0 0 0 0 0 0 0 0 0 0 0 0 0 0 0 0 0 0 0 0 0 ",
"0 0 0 0 0 0 0 0 0 0 0 0 0 0 0 0 0 0 0 0 0 0 0 0 0 0 0 0 0 ",
"0 0 0 0 0 0 0 0 0 0 0 0 0 0 0 0 0 0 0 0 0 0 0 0 0 0 0 0 0 ",
"0 0 0 0 0 0 0 0 0 0 0 0 0 0 0 0 0 0 0 0 0 0 0 0 0 0 0 0 0 ",
"0 0 0 0 0 0 0 0 0 0 0 0 0 0 0 0 0 0 0 0 0 0 0 0 0 0 0 0 0 ",
"0 0 0 0 0 0 0 i p p p p p p p p p p p p a 0 0 0 0 0 0 0 0 ",
"0 0 0 0 0 0 0 s p p p p p p p p p p p p a 0 0 0 0 0 0 0 0 ",
"0 0 0 0 0 0 0 d p p f g g g g g g g g g h 0 0 0 0 0 0 0 0 ",
"0 0 0 0 0 0 0 j p p k 0 0 0 0 0 0 0 0 0 0 0 0 0 0 0 0 0 0 ",
"0 0 0 0 0 0 0 l p p z 0 0 0 0 0 0 0 0 0 0 0 0 0 0 0 0 0 0 ",
"0 0 0 0 0 0 0 x p p c 0 0 0 0 0 0 0 0 0 0 0 0 0 0 0 0 0 0 ",
"0 0 0 0 0 0 0 v p b 0 0 0 0 0 0 0 0 0 0 0 0 0 0 0 0 0 0 0 ",
"0 0 0 0 0 0 0 n p m 0 0 M N B V C 0 0 0 0 0 0 0 0 0 0 0 0 ",
"0 0 0 0 0 0 0 Z p A S D F p p p G H J 0 0 0 0 0 0 0 0 0 0 ",
"0 0 0 0 0 0 0 K p L p p p p p p p p P I 0 0 0 0 0 0 0 0 0 ",
"0 0 0 0 0 0 U p p p Y T R C E W Q p p ! ~ 0 0 0 0 0 0 0 0 ",
"0 0 0 0 0 0 ^ / / ( h 0 0 0 0 0 ) _ p p ` 0 0 0 0 0 0 0 0 ",
"0 0 0 0 0 0 0 0 0 0 0 0 0 0 0 0 0 ^ ' p p ] 0 0 0 0 0 0 0 ",
"0 0 0 0 0 0 0 0 0 0 0 0 0 0 0 0 0 0 [ p p { 0 0 0 0 0 0 0 ",
"0 0 0 0 0 0 0 0 0 0 0 0 0 0 0 0 0 0 } p p | 0 0 0 0 0 0 0 ",
"0 0 0 0 0 0 0 0 0 0 0 0 0 0 0 0 0 0  .p p ..0 0 0 0 0 0 0 ",
"0 0 0 0 0 0 X.o.O.+.0 0 0 0 0 0 0 0 @.p p #.0 0 0 0 0 0 0 ",
"0 0 0 0 0 0 ( p p $.0 0 0 0 0 0 0 X.L p %.c 0 0 0 0 0 0 0 ",
"0 0 0 0 0 0 R &.p &.*.0 0 0 0 0 =.A p p -.0 0 0 0 0 0 0 0 ",
"0 0 0 0 0 0 0 ;.p p p :...>.,.<.1.p p 2.C 0 0 0 0 0 0 0 0 ",
"0 0 0 0 0 0 0 0 3.! p p p p p p p p 4.h 0 0 0 0 0 0 0 0 0 ",
"0 0 0 0 0 0 0 0 0 R  .5.6.! 1.7.8.#.0 0 0 0 0 0 0 0 0 0 0 ",
"0 0 0 0 0 0 0 0 0 0 0 0 0 0 0 0 0 0 0 0 0 0 0 0 0 0 0 0 0 ",
"0 0 0 0 0 0 0 0 0 0 0 0 0 0 0 0 0 0 0 0 0 0 0 0 0 0 0 0 0 ",
"0 0 0 0 0 0 0 0 0 0 0 0 0 0 0 0 0 0 0 0 0 0 0 0 0 0 0 0 0 ",
"0 0 0 0 0 0 0 0 0 0 0 0 0 0 0 0 0 0 0 0 0 0 0 0 0 0 0 0 0 ",
"0 0 0 0 0 0 0 0 0 0 0 0 0 0 0 0 0 0 0 0 0 0 0 0 0 0 0 0 0 ",
"0 0 0 0 0 0 0 0 0 0 0 0 0 0 0 0 0 0 0 0 0 0 0 0 0 0 0 0 0 ",
"0 0 0 0 0 0 0 0 0 0 0 0 0 0 0 0 0 0 0 0 0 0 0 0 0 0 0 0 0 ",
"0 0 0 0 0 0 0 0 0 0 0 0 0 0 0 0 0 0 0 0 0 0 0 0 0 0 0 0 0 ",
"0 0 0 0 0 0 0 0 0 0 0 0 0 0 0 0 0 0 0 0 0 0 0 0 0 0 0 0 0 ",
"0 0 0 0 0 0 0 0 0 0 0 0 0 0 0 0 0 0 0 0 0 0 0 0 0 0 0 0 0 ",
"0 0 0 0 0 0 0 0 0 0 0 0 0 0 0 0 0 0 0 0 0 0 0 0 0 0 0 0 0 ",
"0 0 0 0 0 0 0 0 0 0 0 0 0 0 0 0 0 0 0 0 0 0 0 0 0 0 0 0 0 ",
"0 0 0 0 0 0 0 0 0 0 0 0 0 0 0 0 0 0 0 0 0 0 0 0 0 0 0 0 0 "
};
