/* XPM */
static char *result[] = {
/* columns rows colors chars-per-pixel */
"29 49 139 2 ",
"   c #7EFFFA",
".  c #7FFFFB",
"X  c #7FFFFC",
"o  c #80FDFF",
"O  c #81FEFF",
"+  c #82FFFF",
"@  c #81FFFC",
"#  c #80FEFA",
"$  c #7FFDF9",
"%  c #80FEFB",
"&  c #82FFFD",
"*  c #83FFFD",
"=  c #7EFFFF",
"-  c #7FFFFF",
";  c #7FFFFD",
":  c #80FEFD",
">  c #7BFFFD",
",  c #7AFFFC",
"<  c #7BFFFC",
"1  c #7AFFFD",
"2  c #82FDFB",
"3  c #83FEFC",
"4  c #83FDFF",
"5  c #7DFFFA",
"6  c #7DFFFC",
"7  c #7CFFFC",
"8  c #7CFFFF",
"9  c #7BFFFF",
"0  c #7FFFFE",
"q  c #7CFFFE",
"w  c #7EFEFF",
"e  c #81FFFB",
"r  c #81FFF9",
"t  c #80FFFF",
"y  c #81FFFE",
"u  c #80FFFD",
"i  c #7DFCFB",
"p  c #50A1A0",
"a  c #234747",
"s  c #0D1B1B",
"d  c #030707",
"f  c #0E1C1C",
"g  c #1E3D3D",
"h  c #458B8A",
"j  c #79F4F3",
"k  c #6FE0DF",
"l  c #1B3636",
"z  c black",
"x  c #112222",
"c  c #6BD8D7",
"v  c #76EDEC",
"b  c #132727",
"n  c #1F3F3F",
"m  c #4E9D9C",
"M  c #5BB7B6",
"N  c #4C9998",
"B  c #1A3535",
"V  c #112323",
"C  c #7AF6F5",
"Z  c #316262",
"A  c #3E7C7C",
"S  c #2B5656",
"D  c #468E8D",
"F  c #010202",
"G  c #214343",
"H  c #72E5E4",
"J  c #1E3C3C",
"K  c #336666",
"L  c #56AEAD",
"P  c #3E7D7D",
"I  c #5FC0BF",
"U  c #162D2D",
"Y  c #0B1616",
"T  c #7EFEFD",
"R  c #7BF8F7",
"E  c #010303",
"W  c #274E4E",
"Q  c #7DFBFA",
"!  c #71E4E3",
"~  c #75EBEA",
"^  c #67D0CF",
"/  c #3A7474",
"(  c #54AAA9",
")  c #1F3E3E",
"_  c #091212",
"`  c #2E5D5D",
"'  c #6AD6D5",
"]  c #5BB8B7",
"[  c #438786",
"{  c #326464",
"}  c #53A7A6",
"|  c #55ACAB",
" . c #162C2C",
".. c #5EBDBC",
"X. c #74E9E8",
"o. c #66CDCC",
"O. c #020505",
"+. c #64CAC9",
"@. c #50A2A1",
"#. c #336767",
"$. c #050A0A",
"%. c #79F3F2",
"&. c #0F1E1E",
"*. c #000101",
"=. c #5CB9B8",
"-. c #326565",
";. c #5AB5B4",
":. c #6CD9D8",
">. c #224545",
",. c #408180",
"<. c #040808",
"1. c #152B2B",
"2. c #3D7B7B",
"3. c #73E8E7",
"4. c #285151",
"5. c #65CCCB",
"6. c #4FA09F",
"7. c #3C7979",
"8. c #040909",
"9. c #081111",
"0. c #7CFAF9",
"q. c #122424",
"w. c #58B2B1",
"e. c #7CF9F8",
"r. c #254B4B",
"t. c #3B7777",
"y. c #306060",
"u. c #57AFAE",
"i. c #5DBCBB",
"p. c #489291",
"a. c #142828",
"s. c #132626",
"d. c #59B3B2",
"f. c #183131",
"g. c #71E3E2",
"h. c #193333",
"j. c #091313",
"k. c #030606",
"l. c #0C1919",
/* pixels */
"        . . . . X X X X X X X X o O + + + @ # $ % @ @ & * ",
"= = - - - - - - ; ; ; ; ; ; ; ; % % : o o O - - > , < 1 1 ",
"2 2 3 3 3 3 3 3 4 4 4 4 4 4 4 4 5 6 7 8 9 9 8 8 - 0 0 0 0 ",
"8 8 8 8 8 8 8 8 q q q q q q q q w o O + + @ e r - t t y u ",
"0 0 0 0 0 0 0 0 0 0 0 0 0 0 0 0 0 0 0 0 0 0 0 0 0 0 0 0 0 ",
"0 0 0 0 0 0 0 0 0 0 0 0 0 0 0 0 0 0 0 0 0 0 0 0 0 0 0 0 0 ",
"0 0 0 0 0 0 0 0 0 0 0 0 0 0 0 0 0 0 0 0 0 0 0 0 0 0 0 0 0 ",
"0 0 0 0 0 0 0 0 0 0 0 0 0 0 0 0 0 0 0 0 0 0 0 0 0 0 0 0 0 ",
"0 0 0 0 0 0 0 0 0 0 0 0 0 0 0 0 0 0 0 0 0 0 0 0 0 0 0 0 0 ",
"0 0 0 0 0 0 0 0 0 0 0 0 0 0 0 0 0 0 0 0 0 0 0 0 0 0 0 0 0 ",
"0 0 0 0 0 0 0 0 0 0 0 0 0 0 0 0 0 0 0 0 0 0 0 0 0 0 0 0 0 ",
"0 0 0 0 0 0 0 0 0 0 0 0 0 0 0 0 0 0 0 0 0 0 0 0 0 0 0 0 0 ",
"0 0 0 0 0 0 0 0 0 0 0 0 0 0 0 0 0 0 0 0 0 0 0 0 0 0 0 0 0 ",
"0 0 0 0 0 0 0 0 0 0 0 0 0 0 0 0 0 0 0 0 0 0 0 0 0 0 0 0 0 ",
"0 0 0 0 0 0 0 0 0 i p a s d f g h j 0 0 0 0 0 0 0 0 0 0 0 ",
"0 0 0 0 0 0 0 0 k l z z z z z z z x c 0 0 0 0 0 0 0 0 0 0 ",
"0 0 0 0 0 0 0 v b z z n m M N B z z V C 0 0 0 0 0 0 0 0 0 ",
"0 0 0 0 0 0 0 Z z z A 0 0 0 0 i S z z D 0 0 0 0 0 0 0 0 0 ",
"0 0 0 0 0 0 c F z G 0 0 0 0 0 0 H J K L 0 0 0 0 0 0 0 0 0 ",
"0 0 0 0 0 0 P z z I 0 0 0 0 0 0 0 0 0 0 0 0 0 0 0 0 0 0 0 ",
"0 0 0 0 0 0 U z Y T 0 0 0 0 0 0 0 0 0 0 0 0 0 0 0 0 0 0 0 ",
"0 0 0 0 0 R E z W 0 0 0 Q ! ~ T 0 0 0 0 0 0 0 0 0 0 0 0 0 ",
"0 0 0 0 0 ^ z z / 0 ( ) F z z _ ` ' 0 0 0 0 0 0 0 0 0 0 0 ",
"0 0 0 0 0 ] z z [ { z z z z z z z d } 0 0 0 0 0 0 0 0 0 0 ",
"0 0 0 0 0 | z z  .z W ..X.C o.{ z z O.+.0 0 0 0 0 0 0 0 0 ",
"0 0 0 0 0 @.z z z #.0 0 0 0 0 0 [ z z G 0 0 0 0 0 0 0 0 0 ",
"0 0 0 0 0 | z z $.%.0 0 0 0 0 0 i &.z *.X.0 0 0 0 0 0 0 0 ",
"0 0 0 0 0 =.z z J 0 0 0 0 0 0 0 0 -.z z ;.0 0 0 0 0 0 0 0 ",
"0 0 0 0 0 :.z z >.0 0 0 0 0 0 0 0 ,.z z @.0 0 0 0 0 0 0 0 ",
"0 0 0 0 0 i <.z 1.0 0 0 0 0 0 0 0 2.z z | 0 0 0 0 0 0 0 0 ",
"0 0 0 0 0 0 a z F 3.0 0 0 0 0 0 0 4.z z 5.0 0 0 0 0 0 0 0 ",
"0 0 0 0 0 0 6.z z 7.0 0 0 0 0 0 ~ 8.z 9.i 0 0 0 0 0 0 0 0 ",
"0 0 0 0 0 0 0.q.z O.w.0 0 0 0 e.r.z z t.0 0 0 0 0 0 0 0 0 ",
"0 0 0 0 0 0 0 I d z F y.u.i.p.a.z z s.%.0 0 0 0 0 0 0 0 0 ",
"0 0 0 0 0 0 0 0 d._ z z z z z z z f.g.0 0 0 0 0 0 0 0 0 0 ",
"0 0 0 0 0 0 0 0 0 3.,.h.j.k.l.r.6.i 0 0 0 0 0 0 0 0 0 0 0 ",
"0 0 0 0 0 0 0 0 0 0 0 0 0 0 0 0 0 0 0 0 0 0 0 0 0 0 0 0 0 ",
"0 0 0 0 0 0 0 0 0 0 0 0 0 0 0 0 0 0 0 0 0 0 0 0 0 0 0 0 0 ",
"0 0 0 0 0 0 0 0 0 0 0 0 0 0 0 0 0 0 0 0 0 0 0 0 0 0 0 0 0 ",
"0 0 0 0 0 0 0 0 0 0 0 0 0 0 0 0 0 0 0 0 0 0 0 0 0 0 0 0 0 ",
"0 0 0 0 0 0 0 0 0 0 0 0 0 0 0 0 0 0 0 0 0 0 0 0 0 0 0 0 0 ",
"0 0 0 0 0 0 0 0 0 0 0 0 0 0 0 0 0 0 0 0 0 0 0 0 0 0 0 0 0 ",
"0 0 0 0 0 0 0 0 0 0 0 0 0 0 0 0 0 0 0 0 0 0 0 0 0 0 0 0 0 ",
"0 0 0 0 0 0 0 0 0 0 0 0 0 0 0 0 0 0 0 0 0 0 0 0 0 0 0 0 0 ",
"0 0 0 0 0 0 0 0 0 0 0 0 0 0 0 0 0 0 0 0 0 0 0 0 0 0 0 0 0 ",
"0 0 0 0 0 0 0 0 0 0 0 0 0 0 0 0 0 0 0 0 0 0 0 0 0 0 0 0 0 ",
"0 0 0 0 0 0 0 0 0 0 0 0 0 0 0 0 0 0 0 0 0 0 0 0 0 0 0 0 0 ",
"0 0 0 0 0 0 0 0 0 0 0 0 0 0 0 0 0 0 0 0 0 0 0 0 0 0 0 0 0 ",
"0 0 0 0 0 0 0 0 0 0 0 0 0 0 0 0 0 0 0 0 0 0 0 0 0 0 0 0 0 "
};
