/* XPM */
static char *result[] = {
/* columns rows colors chars-per-pixel */
"29 49 88 1 ",
"  c #7EFFFA",
". c #7FFFFB",
"X c #7FFFFC",
"o c #80FDFF",
"O c #81FEFF",
"+ c #82FFFF",
"@ c #81FFFC",
"# c #80FEFA",
"$ c #7FFDF9",
"% c #80FEFB",
"& c #82FFFD",
"* c #83FFFD",
"= c #7EFFFF",
"- c #7FFFFF",
"; c #7FFFFD",
": c #80FEFD",
"> c #7BFFFD",
", c #7AFFFC",
"< c #7BFFFC",
"1 c #7AFFFD",
"2 c #82FDFB",
"3 c #83FEFC",
"4 c #83FDFF",
"5 c #7DFFFA",
"6 c #7DFFFC",
"7 c #7CFFFC",
"8 c #7CFFFF",
"9 c #7BFFFF",
"0 c #7FFFFE",
"q c #7CFFFE",
"w c #7EFEFF",
"e c #81FFFB",
"r c #81FFF9",
"t c #80FFFF",
"y c #81FFFE",
"u c #80FFFD",
"i c #51A3A2",
"p c black",
"a c #67CFCE",
"s c #6EDEDD",
"d c #152A2A",
"f c #081010",
"g c #75ECEB",
"h c #5DBCBB",
"j c #4D9C9B",
"k c #7AF5F4",
"l c #112222",
"z c #204141",
"x c #397373",
"c c #030606",
"v c #6BD8D7",
"b c #65CCCB",
"n c #010303",
"m c #3D7A7A",
"M c #1C3838",
"N c #0D1B1B",
"B c #53A8A7",
"V c #4E9E9D",
"C c #7DFCFB",
"Z c #112323",
"A c #152B2B",
"S c #7EFDFC",
"D c #51A4A3",
"F c #50A2A1",
"G c #162C2C",
"H c #0E1D1D",
"J c #7DFBFA",
"K c #5FC0BF",
"L c #3F807F",
"P c #2E5D5D",
"I c #000101",
"U c #7AF6F5",
"Y c #050A0A",
"T c #1B3737",
"R c #5AB5B4",
"E c #3E7D7D",
"W c #356B6B",
"Q c #60C1C0",
"! c #193333",
"~ c #77F0EF",
"^ c #040808",
"/ c #0D1A1A",
"( c #6DDCDB",
") c #1D3B3B",
"_ c #64CAC9",
"` c #244949",
"' c #5DBBBA",
"] c #2A5555",
/* pixels */
"    ....XXXXXXXXoO+++@#$%@@&*",
"==------;;;;;;;;%%:ooO-->,<11",
"223333334444444456789988-0000",
"88888888qqqqqqqqwoO++@er-ttyu",
"00000000000000000000000000000",
"00000000000000000000000000000",
"00000000000000000000000000000",
"00000000000000000000000000000",
"00000000000000000000000000000",
"00000000000000000000000000000",
"00000000000000000000000000000",
"00000000000000000000000000000",
"00000000000000000000000000000",
"00000000000000000000000000000",
"000000ippppppppppppppa0000000",
"000000ippppppppppppppa0000000",
"000000siiiiiiiiiiidpfg0000000",
"00000000000000000hppj00000000",
"0000000000000000klpz000000000",
"0000000000000000xpcv000000000",
"000000000000000bnpm0000000000",
"000000000000000MpNk0000000000",
"00000000000000BppV00000000000",
"0000000000000CZpAS00000000000",
"0000000000000DppF000000000000",
"0000000000000GpHJ000000000000",
"000000000000KppL0000000000000",
"000000000000PpIs0000000000000",
"00000000000UYpT00000000000000",
"00000000000RppE00000000000000",
"00000000000WppQ00000000000000",
"00000000000!pp~00000000000000",
"0000000000C^p/000000000000000",
"0000000000(pp)000000000000000",
"0000000000_pp`000000000000000",
"0000000000'pp]000000000000000",
"00000000000000000000000000000",
"00000000000000000000000000000",
"00000000000000000000000000000",
"00000000000000000000000000000",
"00000000000000000000000000000",
"00000000000000000000000000000",
"00000000000000000000000000000",
"00000000000000000000000000000",
"00000000000000000000000000000",
"00000000000000000000000000000",
"00000000000000000000000000000",
"00000000000000000000000000000",
"00000000000000000000000000000"
};
