/* XPM */
static char *result[] = {
/* columns rows colors chars-per-pixel */
"29 49 138 2 ",
"   c #7EFFFA",
".  c #7FFFFB",
"X  c #7FFFFC",
"o  c #80FDFF",
"O  c #81FEFF",
"+  c #82FFFF",
"@  c #81FFFC",
"#  c #80FEFA",
"$  c #7FFDF9",
"%  c #80FEFB",
"&  c #82FFFD",
"*  c #83FFFD",
"=  c #7EFFFF",
"-  c #7FFFFF",
";  c #7FFFFD",
":  c #80FEFD",
">  c #7BFFFD",
",  c #7AFFFC",
"<  c #7BFFFC",
"1  c #7AFFFD",
"2  c #82FDFB",
"3  c #83FEFC",
"4  c #83FDFF",
"5  c #7DFFFA",
"6  c #7DFFFC",
"7  c #7CFFFC",
"8  c #7CFFFF",
"9  c #7BFFFF",
"0  c #7FFFFE",
"q  c #7CFFFE",
"w  c #7EFEFF",
"e  c #81FFFB",
"r  c #81FFF9",
"t  c #80FFFF",
"y  c #81FFFE",
"u  c #80FFFD",
"i  c #77F0EF",
"p  c #47908F",
"a  c #234646",
"s  c #0C1818",
"d  c #030606",
"f  c #050A0A",
"g  c #0F1F1F",
"h  c #295252",
"j  c #52A5A4",
"k  c #7CFAF9",
"l  c #5CB9B8",
"z  c #0B1616",
"x  c black",
"c  c #162C2C",
"v  c #6BD8D7",
"b  c #65CCCB",
"n  c #030707",
"m  c #3C7979",
"M  c #74E9E8",
"N  c #72E5E4",
"B  c #5EBDBC",
"V  c #2A5555",
"C  c #0D1B1B",
"Z  c #77EFEE",
"A  c #224444",
"S  c #54A9A8",
"D  c #326464",
"F  c #3F7F7F",
"G  c #010303",
"H  c #081010",
"J  c #63C7C6",
"K  c #1D3B3B",
"L  c #78F2F1",
"P  c #172E2E",
"I  c #73E7E6",
"U  c #152A2A",
"Y  c #091212",
"T  c #7EFEFD",
"R  c #67CFCE",
"E  c #264D4D",
"W  c #3C7878",
"Q  c #387070",
"!  c #5BB7B6",
"~  c #193333",
"^  c #3F7E7E",
"/  c #7BF8F7",
"(  c #7AF5F4",
")  c #66CECD",
"_  c #326565",
"`  c #306161",
"'  c #79F3F2",
"]  c #346969",
"[  c #070E0E",
"{  c #0E1C1C",
"}  c #458B8A",
"|  c #418483",
" . c #142828",
".. c #1D3A3A",
"X. c #4B9897",
"o. c #71E4E3",
"O. c #020404",
"+. c #356A6A",
"@. c #5FC0BF",
"#. c #6FE0DF",
"$. c #6DDBDA",
"%. c #59B3B2",
"&. c #254A4A",
"*. c #010202",
"=. c #5AB5B4",
"-. c #489291",
";. c #5EBEBD",
":. c #2B5656",
">. c #152B2B",
",. c #73E8E7",
"<. c #3E7D7D",
"1. c #499392",
"2. c #2F5F5F",
"3. c #57AFAE",
"4. c #54AAA9",
"5. c #387171",
"6. c #4E9D9C",
"7. c #3B7777",
"8. c #2A5454",
"9. c #56ADAC",
"0. c #53A8A7",
"q. c #285151",
"w. c #102020",
"e. c #091313",
"r. c #1E3D3D",
"t. c #50A2A1",
"y. c #376E6E",
"u. c #60C1C0",
"i. c #6EDEDD",
"p. c #5CBAB9",
"a. c #2F5E5E",
"s. c #4E9E9D",
"d. c #050B0B",
"f. c #0D1A1A",
"g. c #74EAE9",
"h. c #428685",
"j. c #204141",
"k. c #040909",
/* pixels */
"        . . . . X X X X X X X X o O + + + @ # $ % @ @ & * ",
"= = - - - - - - ; ; ; ; ; ; ; ; % % : o o O - - > , < 1 1 ",
"2 2 3 3 3 3 3 3 4 4 4 4 4 4 4 4 5 6 7 8 9 9 8 8 - 0 0 0 0 ",
"8 8 8 8 8 8 8 8 q q q q q q q q w o O + + @ e r - t t y u ",
"0 0 0 0 0 0 0 0 0 0 0 0 0 0 0 0 0 0 0 0 0 0 0 0 0 0 0 0 0 ",
"0 0 0 0 0 0 0 0 0 0 0 0 0 0 0 0 0 0 0 0 0 0 0 0 0 0 0 0 0 ",
"0 0 0 0 0 0 0 0 0 0 0 0 0 0 0 0 0 0 0 0 0 0 0 0 0 0 0 0 0 ",
"0 0 0 0 0 0 0 0 0 0 0 0 0 0 0 0 0 0 0 0 0 0 0 0 0 0 0 0 0 ",
"0 0 0 0 0 0 0 0 0 0 0 0 0 0 0 0 0 0 0 0 0 0 0 0 0 0 0 0 0 ",
"0 0 0 0 0 0 0 0 0 0 0 0 0 0 0 0 0 0 0 0 0 0 0 0 0 0 0 0 0 ",
"0 0 0 0 0 0 0 0 0 0 0 0 0 0 0 0 0 0 0 0 0 0 0 0 0 0 0 0 0 ",
"0 0 0 0 0 0 0 0 0 0 0 0 0 0 0 0 0 0 0 0 0 0 0 0 0 0 0 0 0 ",
"0 0 0 0 0 0 0 0 0 0 0 0 0 0 0 0 0 0 0 0 0 0 0 0 0 0 0 0 0 ",
"0 0 0 0 0 0 0 0 0 0 0 0 0 0 0 0 0 0 0 0 0 0 0 0 0 0 0 0 0 ",
"0 0 0 0 0 0 0 0 0 i p a s d f g h j k 0 0 0 0 0 0 0 0 0 0 ",
"0 0 0 0 0 0 0 0 l z x x x x x x x x c v 0 0 0 0 0 0 0 0 0 ",
"0 0 0 0 0 0 0 b n x d m b M N B V x x C Z 0 0 0 0 0 0 0 0 ",
"0 0 0 0 0 0 0 A x x S 0 0 0 0 0 0 D x x F 0 0 0 0 0 0 0 0 ",
"0 0 0 0 0 0 k G x H 0 0 0 0 0 0 0 J x x K 0 0 0 0 0 0 0 0 ",
"0 0 0 0 0 0 L x x P 0 0 0 0 0 0 0 I x x U 0 0 0 0 0 0 0 0 ",
"0 0 0 0 0 0 0 s x Y T 0 0 0 0 0 0 R x x E 0 0 0 0 0 0 0 0 ",
"0 0 0 0 0 0 0 W x x j 0 0 0 0 0 0 Q x x ! 0 0 0 0 0 0 0 0 ",
"0 0 0 0 0 0 0 i ~ x d ^ v / ( ) _ x x ` 0 0 0 0 0 0 0 0 0 ",
"0 0 0 0 0 0 0 0 ' ] [ x x x x x x { } T 0 0 0 0 0 0 0 0 0 ",
"0 0 0 0 0 0 0 0 ( |  .x x x x x x ..X.T 0 0 0 0 0 0 0 0 0 ",
"0 0 0 0 0 0 0 o. .x O.+.@.#.$.%.V x x &.L 0 0 0 0 0 0 0 0 ",
"0 0 0 0 0 0 0 K x *.=.0 0 0 0 0 0 -.x x ` 0 0 0 0 0 0 0 0 ",
"0 0 0 0 0 0 ;.x x :.0 0 0 0 0 0 0 0 >.x G ,.0 0 0 0 0 0 0 ",
"0 0 0 0 0 0 <.x x 1.0 0 0 0 0 0 0 0 2.x x 3.0 0 0 0 0 0 0 ",
"0 0 0 0 0 0 ] x x 4.0 0 0 0 0 0 0 0 5.x x 6.0 0 0 0 0 0 0 ",
"0 0 0 0 0 0 7.x x } 0 0 0 0 0 0 0 0 8.x x 9.0 0 0 0 0 0 0 ",
"0 0 0 0 0 0 0.x x q.0 0 0 0 0 0 0 T w.x x #.0 0 0 0 0 0 0 ",
"0 0 0 0 0 0 L e.x *.! 0 0 0 0 0 0 p x x r.0 0 0 0 0 0 0 0 ",
"0 0 0 0 0 0 0 t.x x d y.u.#.i.p.a.x x f ) 0 0 0 0 0 0 0 0 ",
"0 0 0 0 0 0 0 0 s.d.x x x x x x x x f.u.0 0 0 0 0 0 0 0 0 ",
"0 0 0 0 0 0 0 0 0 g.h.j.s d k.{ E X.( 0 0 0 0 0 0 0 0 0 0 ",
"0 0 0 0 0 0 0 0 0 0 0 0 0 0 0 0 0 0 0 0 0 0 0 0 0 0 0 0 0 ",
"0 0 0 0 0 0 0 0 0 0 0 0 0 0 0 0 0 0 0 0 0 0 0 0 0 0 0 0 0 ",
"0 0 0 0 0 0 0 0 0 0 0 0 0 0 0 0 0 0 0 0 0 0 0 0 0 0 0 0 0 ",
"0 0 0 0 0 0 0 0 0 0 0 0 0 0 0 0 0 0 0 0 0 0 0 0 0 0 0 0 0 ",
"0 0 0 0 0 0 0 0 0 0 0 0 0 0 0 0 0 0 0 0 0 0 0 0 0 0 0 0 0 ",
"0 0 0 0 0 0 0 0 0 0 0 0 0 0 0 0 0 0 0 0 0 0 0 0 0 0 0 0 0 ",
"0 0 0 0 0 0 0 0 0 0 0 0 0 0 0 0 0 0 0 0 0 0 0 0 0 0 0 0 0 ",
"0 0 0 0 0 0 0 0 0 0 0 0 0 0 0 0 0 0 0 0 0 0 0 0 0 0 0 0 0 ",
"0 0 0 0 0 0 0 0 0 0 0 0 0 0 0 0 0 0 0 0 0 0 0 0 0 0 0 0 0 ",
"0 0 0 0 0 0 0 0 0 0 0 0 0 0 0 0 0 0 0 0 0 0 0 0 0 0 0 0 0 ",
"0 0 0 0 0 0 0 0 0 0 0 0 0 0 0 0 0 0 0 0 0 0 0 0 0 0 0 0 0 ",
"0 0 0 0 0 0 0 0 0 0 0 0 0 0 0 0 0 0 0 0 0 0 0 0 0 0 0 0 0 ",
"0 0 0 0 0 0 0 0 0 0 0 0 0 0 0 0 0 0 0 0 0 0 0 0 0 0 0 0 0 "
};
