/* XPM */
static char *result[] = {
/* columns rows colors chars-per-pixel */
"29 49 136 2 ",
"   c #7EFFFA",
".  c #7FFFFB",
"X  c #7FFFFC",
"o  c #80FDFF",
"O  c #81FEFF",
"+  c #82FFFF",
"@  c #81FFFC",
"#  c #80FEFA",
"$  c #7FFDF9",
"%  c #80FEFB",
"&  c #82FFFD",
"*  c #83FFFD",
"=  c #7EFFFF",
"-  c #7FFFFF",
";  c #7FFFFD",
":  c #80FEFD",
">  c #7BFFFD",
",  c #7AFFFC",
"<  c #7BFFFC",
"1  c #7AFFFD",
"2  c #82FDFB",
"3  c #83FEFC",
"4  c #83FDFF",
"5  c #7DFFFA",
"6  c #7DFFFC",
"7  c #7CFFFC",
"8  c #7CFFFF",
"9  c #7BFFFF",
"0  c #7FFFFE",
"q  c #7CFFFE",
"w  c #7EFEFF",
"e  c #81FFFB",
"r  c #81FFF9",
"t  c #80FFFF",
"y  c #81FFFE",
"u  c #80FFFD",
"i  c #7CF9F8",
"p  c #4E9D9C",
"a  c #264D4D",
"s  c #0D1B1B",
"d  c #030707",
"f  c #081111",
"g  c #172F2F",
"h  c #3D7A7A",
"j  c #71E4E3",
"k  c #67CFCE",
"l  c #112323",
"z  c black",
"x  c #070E0E",
"c  c #55ACAB",
"v  c #6EDEDD",
"b  c #091212",
"n  c #183030",
"m  c #499392",
"M  c #5BB8B7",
"N  c #53A8A7",
"B  c #2C5959",
"V  c #000101",
"C  c #020505",
"Z  c #5EBDBC",
"A  c #274E4E",
"S  c #2F5F5F",
"D  c #7DFCFB",
"F  c #56ADAC",
"G  c #010303",
"H  c #132727",
"J  c #7DFBFA",
"K  c #0D1A1A",
"L  c #7BF7F6",
"P  c #376F6F",
"I  c #54AAA9",
"U  c #52A6A5",
"Y  c #387070",
"T  c #6CDAD9",
"R  c #2B5656",
"E  c #448A89",
"W  c #4C9998",
"Q  c #0C1818",
"!  c #0C1919",
"~  c #438786",
"^  c #183131",
"/  c #77EFEE",
"(  c #3E7D7D",
")  c #122424",
"_  c #68D2D1",
"`  c #69D4D3",
"'  c #6CD9D8",
"]  c #62C5C4",
"[  c #499493",
"{  c #7AF6F5",
"}  c #1E3C3C",
"|  c #5DBBBA",
" . c #5CB9B8",
".. c #376E6E",
"X. c #6AD5D4",
"o. c #7BF8F7",
"O. c #6FDFDE",
"+. c #152A2A",
"@. c #1C3939",
"#. c #61C4C3",
"$. c #489190",
"%. c #010202",
"&. c #356B6B",
"*. c #62C6C5",
"=. c #244848",
"-. c #030606",
";. c #020404",
":. c #61C3C2",
">. c #295353",
",. c #73E8E7",
"<. c #6DDBDA",
"1. c #7CFAF9",
"2. c #0B1616",
"3. c #74E9E8",
"4. c #4A9594",
"5. c #4B9897",
"6. c #316262",
"7. c #7EFDFC",
"8. c #7AF5F4",
"9. c #102020",
"0. c #040909",
"q. c #75EBEA",
"w. c #2B5757",
"e. c #468D8C",
"r. c #6AD6D5",
"t. c #040808",
"y. c #162D2D",
"u. c #1C3838",
"i. c #234646",
"p. c #76EDEC",
"a. c #6EDDDC",
"s. c #193232",
"d. c #0A1515",
"f. c #0E1D1D",
"g. c #295252",
"h. c #56AEAD",
/* pixels */
"        . . . . X X X X X X X X o O + + + @ # $ % @ @ & * ",
"= = - - - - - - ; ; ; ; ; ; ; ; % % : o o O - - > , < 1 1 ",
"2 2 3 3 3 3 3 3 4 4 4 4 4 4 4 4 5 6 7 8 9 9 8 8 - 0 0 0 0 ",
"8 8 8 8 8 8 8 8 q q q q q q q q w o O + + @ e r - t t y u ",
"0 0 0 0 0 0 0 0 0 0 0 0 0 0 0 0 0 0 0 0 0 0 0 0 0 0 0 0 0 ",
"0 0 0 0 0 0 0 0 0 0 0 0 0 0 0 0 0 0 0 0 0 0 0 0 0 0 0 0 0 ",
"0 0 0 0 0 0 0 0 0 0 0 0 0 0 0 0 0 0 0 0 0 0 0 0 0 0 0 0 0 ",
"0 0 0 0 0 0 0 0 0 0 0 0 0 0 0 0 0 0 0 0 0 0 0 0 0 0 0 0 0 ",
"0 0 0 0 0 0 0 0 0 0 0 0 0 0 0 0 0 0 0 0 0 0 0 0 0 0 0 0 0 ",
"0 0 0 0 0 0 0 0 0 0 0 0 0 0 0 0 0 0 0 0 0 0 0 0 0 0 0 0 0 ",
"0 0 0 0 0 0 0 0 0 0 0 0 0 0 0 0 0 0 0 0 0 0 0 0 0 0 0 0 0 ",
"0 0 0 0 0 0 0 0 0 0 0 0 0 0 0 0 0 0 0 0 0 0 0 0 0 0 0 0 0 ",
"0 0 0 0 0 0 0 0 0 0 0 0 0 0 0 0 0 0 0 0 0 0 0 0 0 0 0 0 0 ",
"0 0 0 0 0 0 0 0 0 i p a s d f g h j 0 0 0 0 0 0 0 0 0 0 0 ",
"0 0 0 0 0 0 0 0 k l z z z z z z z x c 0 0 0 0 0 0 0 0 0 0 ",
"0 0 0 0 0 0 0 v b z z n m M N B V z C Z 0 0 0 0 0 0 0 0 0 ",
"0 0 0 0 0 0 0 A z z S D 0 0 0 0 F G z H J 0 0 0 0 0 0 0 0 ",
"0 0 0 0 0 0 j z z K L 0 0 0 0 0 0 P z z I 0 0 0 0 0 0 0 0 ",
"0 0 0 0 0 0 U z z Y 0 0 0 0 0 0 0 T z z R 0 0 0 0 0 0 0 0 ",
"0 0 0 0 0 0 E z z W 0 0 0 0 0 0 0 0 Q z ! 0 0 0 0 0 0 0 0 ",
"0 0 0 0 0 0 ~ z z p 0 0 0 0 0 0 0 0 ^ z z / 0 0 0 0 0 0 0 ",
"0 0 0 0 0 0 p z z ( 0 0 0 0 0 0 0 0 ) z z _ 0 0 0 0 0 0 0 ",
"0 0 0 0 0 0 ` z z g 0 0 0 0 0 0 0 ' z z z ] 0 0 0 0 0 0 0 ",
"0 0 0 0 0 0 0 g z z [ 0 0 0 0 0 { } z z z | 0 0 0 0 0 0 0 ",
"0 0 0 0 0 0 0  .V z V ..X.o.O.U +.V @.z z #.0 0 0 0 0 0 0 ",
"0 0 0 0 0 0 0 0 $.%.z z z z z z %.E &.z z _ 0 0 0 0 0 0 0 ",
"0 0 0 0 0 0 0 0 0 *.=.-.z z ;.a :.0 >.z z ,.0 0 0 0 0 0 0 ",
"0 0 0 0 0 0 0 0 0 0 0 { <.v 1.0 0 0 +.z 2.0 0 0 0 0 0 0 0 ",
"0 0 0 0 0 0 0 0 0 0 0 0 0 0 0 0 0 3.%.z =.0 0 0 0 0 0 0 0 ",
"0 0 0 0 0 0 0 0 0 0 0 0 0 0 0 0 0 4.z z 5.0 0 0 0 0 0 0 0 ",
"0 0 0 0 0 0 0 6.^ n 7.0 0 0 0 0 8.9.z 0.q.0 0 0 0 0 0 0 0 ",
"0 0 0 0 0 0 0 w.z z e.0 0 0 0 i R z z ( 0 0 0 0 0 0 0 0 0 ",
"0 0 0 0 0 0 0 r.t.z V w.N | 4.y.z z u.8.0 0 0 0 0 0 0 0 0 ",
"0 0 0 0 0 0 0 0 c t.z z z z z z z i.p.0 0 0 0 0 0 0 0 0 0 ",
"0 0 0 0 0 0 0 0 0 a...s.d.d f.g.h.0 0 0 0 0 0 0 0 0 0 0 0 ",
"0 0 0 0 0 0 0 0 0 0 0 0 0 0 0 0 0 0 0 0 0 0 0 0 0 0 0 0 0 ",
"0 0 0 0 0 0 0 0 0 0 0 0 0 0 0 0 0 0 0 0 0 0 0 0 0 0 0 0 0 ",
"0 0 0 0 0 0 0 0 0 0 0 0 0 0 0 0 0 0 0 0 0 0 0 0 0 0 0 0 0 ",
"0 0 0 0 0 0 0 0 0 0 0 0 0 0 0 0 0 0 0 0 0 0 0 0 0 0 0 0 0 ",
"0 0 0 0 0 0 0 0 0 0 0 0 0 0 0 0 0 0 0 0 0 0 0 0 0 0 0 0 0 ",
"0 0 0 0 0 0 0 0 0 0 0 0 0 0 0 0 0 0 0 0 0 0 0 0 0 0 0 0 0 ",
"0 0 0 0 0 0 0 0 0 0 0 0 0 0 0 0 0 0 0 0 0 0 0 0 0 0 0 0 0 ",
"0 0 0 0 0 0 0 0 0 0 0 0 0 0 0 0 0 0 0 0 0 0 0 0 0 0 0 0 0 ",
"0 0 0 0 0 0 0 0 0 0 0 0 0 0 0 0 0 0 0 0 0 0 0 0 0 0 0 0 0 ",
"0 0 0 0 0 0 0 0 0 0 0 0 0 0 0 0 0 0 0 0 0 0 0 0 0 0 0 0 0 ",
"0 0 0 0 0 0 0 0 0 0 0 0 0 0 0 0 0 0 0 0 0 0 0 0 0 0 0 0 0 ",
"0 0 0 0 0 0 0 0 0 0 0 0 0 0 0 0 0 0 0 0 0 0 0 0 0 0 0 0 0 ",
"0 0 0 0 0 0 0 0 0 0 0 0 0 0 0 0 0 0 0 0 0 0 0 0 0 0 0 0 0 ",
"0 0 0 0 0 0 0 0 0 0 0 0 0 0 0 0 0 0 0 0 0 0 0 0 0 0 0 0 0 "
};
