/* XPM */
static char *result[] = {
/* columns rows colors chars-per-pixel */
"29 49 89 1 ",
"  c #7EFFFA",
". c #7FFFFB",
"X c #7FFFFC",
"o c #80FDFF",
"O c #81FEFF",
"+ c #82FFFF",
"@ c #81FFFC",
"# c #80FEFA",
"$ c #7FFDF9",
"% c #80FEFB",
"& c #82FFFD",
"* c #83FFFD",
"= c #7EFFFF",
"- c #7FFFFF",
"; c #7FFFFD",
": c #80FEFD",
"> c #7BFFFD",
", c #7AFFFC",
"< c #7BFFFC",
"1 c #7AFFFD",
"2 c #82FDFB",
"3 c #83FEFC",
"4 c #83FDFF",
"5 c #7DFFFA",
"6 c #7DFFFC",
"7 c #7CFFFC",
"8 c #7CFFFF",
"9 c #7BFFFF",
"0 c #7FFFFE",
"q c #7CFFFE",
"w c #7EFEFF",
"e c #81FFFB",
"r c #81FFF9",
"t c #80FFFF",
"y c #81FFFE",
"u c #80FFFD",
"i c gray28",
"p c black",
"a c #3F3F3F",
"s c gray97",
"d c #090909",
"f c #868686",
"g c gray72",
"h c #CDCDCD",
"j c #717171",
"k c #151515",
"l c gray16",
"z c #5A5A5A",
"x c #E2E2E2",
"c c gray63",
"v c #9A9A9A",
"b c #E7E7E7",
"n c #535353",
"m c #2F2F2F",
"M c gray99",
"N c #101010",
"B c #767676",
"V c gray77",
"C c #BCBCBC",
"Z c #7C7C7C",
"A c gray4",
"S c #F8F8F8",
"D c #353535",
"F c gray29",
"G c gray92",
"H c #020202",
"J c gray57",
"K c gray65",
"L c #D7D7D7",
"P c gray37",
"I c #1E1E1E",
"U c #181818",
"Y c #656565",
"T c gray81",
"R c #ACACAC",
"E c #888888",
"W c gray1",
"Q c #EFEFEF",
"! c gray25",
"~ c #393939",
"^ c #F3F3F3",
"/ c #060606",
"( c #808080",
") c #B1B1B1",
"_ c gray78",
"` c #6A6A6A",
"' c #111111",
"] c #232323",
"[ c gray33",
/* pixels */
"    ....XXXXXXXXoO+++@#$%@@&*",
"==------;;;;;;;;%%:ooO-->,<11",
"223333334444444456789988-0000",
"88888888qqqqqqqqwoO++@er-ttyu",
"00000000000000000000000000000",
"00000000000000000000000000000",
"00000000000000000000000000000",
"00000000000000000000000000000",
"00000000000000000000000000000",
"00000000000000000000000000000",
"00000qqqqqqqqqqqqqqqqq0000000",
"00000qqqqqqqqqqqqqqqqq0000000",
"00000qqqqqqqqqqipaqqqq0000000",
"00000qqqqqqqqqsdpfqqqq0000000",
"00000qqqqqqqqqgpphqqqq0000000",
"00000qqqqqqqqqjpkqqqqq0000000",
"00000qqqqqqqqqlpzqqqqq0000000",
"00000qqqqqqqqxppcqqqqq0000000",
"00000qqqqqqqqvppbqqqqq0000000",
"00000qqqqqqqqnpmqqqqqq0000000",
"00000qqqqqqqMNpBqqqqqq0000000",
"00000qqqqqqqVppCqqqqqq0000000",
"00000qqqqqqqZpASqqqqqq0000000",
"00000qqqqqqqDpFqqqqqqq0000000",
"00000qqqqqqGHpJqqqqqqq0000000",
"00000qqqqqqKppLqqqqqqq0000000",
"00000qqqqqqPpIqqqqqqqq0000000",
"00000qqqqqqUpYqqqqqqqq0000000",
"00000qqqqqTppRqqqqqqqq0000000",
"00000qqqqqEpWQqqqqqqqq0000000",
"00000qqqqq!p~qqqqqqqqq0000000",
"00000qqqq^/p(qqqqqqqqq0000000",
"00000qqqq)pp_qqqqqqqqq0000000",
"00000qqqq`p'Mqqqqqqqqq0000000",
"00000qqqq]p[qqqqqqqqqq0000000",
"00000qqqqqqqqqqqqqqqqq0000000",
"00000qqqqqqqqqqqqqqqqq0000000",
"00000qqqqqqqqqqqqqqqqq0000000",
"00000000000000000000000000000",
"00000000000000000000000000000",
"00000000000000000000000000000",
"00000000000000000000000000000",
"00000000000000000000000000000",
"00000000000000000000000000000",
"00000000000000000000000000000",
"00000000000000000000000000000",
"00000000000000000000000000000",
"00000000000000000000000000000",
"00000000000000000000000000000"
};
