/* XPM */
static char *result[] = {
/* columns rows colors chars-per-pixel */
"14 20 78 1 ",
"  c #808080",
". c #70619E",
"X c #552BD4",
"o c #470EF1",
"O c #4103FC",
"+ c #4408F7",
"@ c #4F1FE0",
"# c #664DB3",
"$ c #7E7D82",
"% c #6142BE",
"& c #4000FF",
"* c #4102FD",
"= c #4307F8",
"- c #5020DF",
"; c #7D7A86",
": c #6E5CA4",
"> c #5D3BC5",
", c #7C7887",
"< c #7F7F81",
"1 c #6C59A6",
"2 c #4409F6",
"3 c #5A34CC",
"4 c #4C19E6",
"5 c #552BD5",
"6 c #6B56AA",
"7 c #4001FF",
"8 c #787090",
"9 c #766C94",
"0 c #72659B",
"q c #7F7F80",
"w c #470FF1",
"e c #674FB1",
"r c #572ED1",
"t c #5225DB",
"y c #5C39C7",
"u c #4D1AE6",
"i c #6041BE",
"p c #470EF2",
"a c #572FD0",
"s c #5225DA",
"d c #664DB2",
"f c #4204FB",
"g c #5429D7",
"h c #552AD6",
"j c #6952AE",
"k c #6851AE",
"l c #7F7E82",
"z c #5830D0",
"x c #664CB3",
"c c #4205FB",
"v c #5D3AC5",
"b c #4C19E7",
"n c #5F3FC0",
"m c #4810EF",
"M c #4306F9",
"N c #7F7E81",
"B c #552AD5",
"V c #5429D6",
"C c #70619F",
"Z c #7E7D83",
"A c #654AB6",
"S c #5327D9",
"D c #654BB5",
"F c #4204FC",
"G c #7B7689",
"H c #71639C",
"J c #5C38C8",
"K c #6851AF",
"L c #6041BF",
"P c #654BB4",
"I c #4103FD",
"U c #4306FA",
"Y c #562CD3",
"T c #736699",
"R c #562DD3",
"E c #450AF6",
"W c #5123DD",
"Q c #6A54AB",
/* pixels */
"              ",
"   .XoO+@#$   ",
"  %&&*o=&&-;  ",
" :&&>, <12&3  ",
" 4&5     6&78 ",
"9&&0     qw&% ",
"e&=<      r&t ",
"y&u       i&p ",
"a&s       d&f ",
"g&h       j&&$",
"g&h       k&&l",
"z&t       x&c ",
"v&b       n&m ",
"k&MN      B&V ",
"87&C     Z2&A ",
" @&S     D&FG ",
" H7&J, lKc&L  ",
"  P7&IwU&&Yl  ",
"   TRoIEWQ    ",
"              "
};
