/* XPM */
static char *result[] = {
/* columns rows colors chars-per-pixel */
"14 20 25 1 ",
"  c #808080",
". c #79728E",
"X c #5123DC",
"o c #4000FF",
"O c #7C7888",
"+ c #674FB0",
"@ c #4408F8",
"# c #79738C",
"$ c #5225DA",
"% c #4408F7",
"& c #5831CE",
"* c #6448B8",
"= c #5021DF",
"- c #78718E",
"; c #6D5AA6",
": c #664CB4",
"> c #6346BA",
", c #7F7F80",
"< c #7F7F81",
"1 c #460CF4",
"2 c #4306FA",
"3 c #4307F8",
"4 c #6040BF",
"5 c #4204FC",
"6 c #5E3CC4",
/* pixels */
"              ",
"    .XooO     ",
"   +@oooO     ",
" #$o%&ooO     ",
" *o=-;ooO     ",
" :>, ;ooO     ",
" <   ;ooO     ",
"     ;ooO     ",
"     ;ooO     ",
"     ;ooO     ",
"     ;ooO     ",
"     ;ooO     ",
"     ;ooO     ",
"     ;ooO     ",
"     ;ooO     ",
"     ;ooO     ",
"     ;ooO     ",
" 1@@@2oo3@@@4 ",
" 5oooooooooo6 ",
"              "
};
