/* XPM */
static char *result[] = {
/* columns rows colors chars-per-pixel */
"14 20 68 1 ",
"  c #808080",
". c #6D5BA5",
"X c #5429D7",
"o c #460DF3",
"O c #4103FD",
"+ c #4307F9",
"@ c #4C19E7",
"# c #5E3DC2",
"$ c #79738C",
"% c #7F7E82",
"& c #562DD2",
"* c #4000FF",
"= c #450AF5",
"- c #4408F7",
"; c #72649C",
": c #5D3BC4",
"> c #5C39C7",
", c #7A758A",
"< c #6B57A8",
"1 c #450BF4",
"2 c #4810EF",
"3 c #7E7D83",
"4 c #7C7986",
"5 c #4205FB",
"6 c #5A34CB",
"7 c #6C58A8",
"8 c #6E5DA3",
"9 c #766C94",
"0 c #5122DD",
"q c #4B17E9",
"w c #736798",
"e c #7D7B85",
"r c #4001FE",
"t c #654AB5",
"y c #7E7C83",
"u c #4001FF",
"i c #674FB1",
"p c #4102FD",
"a c #787090",
"s c #7C7887",
"d c #4912EE",
"f c #5B36C9",
"g c #7B7788",
"h c #4E1DE2",
"j c #766D92",
"k c #4913EC",
"l c #4B16EA",
"z c #7A748B",
"x c #6E5CA3",
"c c #4409F7",
"v c #5122DE",
"b c #6346BA",
"n c #5B37C9",
"m c #5F3FC1",
"M c #4103FC",
"N c #6040BF",
"B c #4306FA",
"V c #7060A0",
"C c #6C58A7",
"Z c #7D7B84",
"A c #460DF2",
"S c #5E3DC3",
"D c #6851AE",
"F c #4306F9",
"G c #4408F8",
"H c #5326DA",
"J c #664CB4",
"K c #5020E0",
/* pixels */
"              ",
"   .XoO+@#$   ",
" %&***=O**-;  ",
" :**>, %<1*23 ",
"45*6     7**8 ",
"90qw     er*t ",
"         yu*i ",
"         7*pa ",
"        sd*f  ",
"       gh*@4  ",
"      jk*lz   ",
"     xc*vs    ",
"    br*n%     ",
"   m*Mi       ",
"  N*BV        ",
" C*OV         ",
"ZA*S          ",
"D**FGGGGGGGGH ",
"J***********K ",
"              "
};
