/* XPM */
static char *result[] = {
/* columns rows colors chars-per-pixel */
"14 20 80 1 ",
"  c #808080",
". c #7060A0",
"X c #562CD4",
"o c #470FF0",
"O c #4103FC",
"+ c #4306FA",
"@ c #4A14EB",
"# c #5A35CB",
"$ c #766C94",
"% c #7F7F80",
"& c #5B36C9",
"* c #4000FF",
"= c #450AF6",
"- c #4204FB",
"; c #6851AE",
": c #654AB6",
"> c #5B37C8",
", c #7A758A",
"< c #72649B",
"1 c #4B17E8",
"2 c #4103FD",
"3 c #776F91",
"4 c #470EF2",
"5 c #562DD2",
"6 c #6142BE",
"7 c #7B7788",
"8 c #5429D7",
"9 c #4F1FE1",
"0 c #70619F",
"q c #4B16E9",
"w c #5830D0",
"e c #4B17E9",
"r c #5E3CC3",
"t c #6F5FA0",
"y c #71629E",
"u c #7E7C83",
"i c #776E92",
"p c #6143BC",
"a c #4205FB",
"s c #5C39C6",
"d c #7B768A",
"f c #4102FD",
"g c #5122DE",
"h c #6C58A8",
"j c #7B7689",
"k c #4102FE",
"l c #4001FF",
"z c #460DF3",
"x c #5831CE",
"c c #766D92",
"v c #7F7E81",
"b c #7A748B",
"n c #6B56AA",
"m c #7F7F81",
"M c #5224DB",
"N c #4B16EA",
"B c #6A55AB",
"V c #79738C",
"C c #6E5DA3",
"Z c #4E1DE3",
"A c #4912EE",
"S c #6A54AC",
"D c #79728E",
"F c #552BD5",
"G c #4409F6",
"H c #5225DB",
"J c #6040BF",
"K c #7C7888",
"L c #776F90",
"P c #5932CD",
"I c #5E3DC3",
"U c #7B7789",
"Y c #450BF5",
"T c #4205FA",
"R c #5428D8",
"E c #7E7D83",
"W c #6952AE",
"Q c #5225DA",
"! c #4204FC",
"~ c #5429D6",
/* pixels */
"              ",
"   .XoO+@#$   ",
" %&***=-**O;  ",
" :**>, %<1*23 ",
" 4*5     32*6 ",
"7890      q*w ",
"          e*r ",
"         t**y ",
"      uipa*s  ",
"    d***fgh   ",
"    jkl**zxc  ",
"      vbng*+y ",
"         mM*N ",
"          B**V",
"CZAd      S**D",
"i**6      F*Gv",
" H*kJK  LP**I ",
" UZ**lYT***RE ",
"  vWQzO!o~h   ",
"              "
};
