/* XPM */
static char *result[] = {
/* columns rows colors chars-per-pixel */
"14 20 44 1 ",
"  c #808080",
". c #5A35CA",
"X c #4000FF",
"o c #72649C",
"O c #6E5DA2",
"+ c #4001FF",
"@ c #7C7888",
"# c #470EF1",
"$ c #4204FB",
"% c #562DD2",
"& c #5E3DC3",
"* c #4102FE",
"= c #6B56AA",
"- c #4912EE",
"; c #7D7A85",
": c #7A748C",
"> c #450AF6",
", c #4001FE",
"< c #71629D",
"1 c #5326DA",
"2 c #5D3BC5",
"3 c #664DB2",
"4 c #4B16EA",
"5 c #7E7C83",
"6 c #776F90",
"7 c #4306F9",
"8 c #4103FD",
"9 c #736799",
"0 c #7F7F81",
"q c #4F1FE1",
"w c #6041BE",
"e c #6245BB",
"r c #4D1AE5",
"t c #7F7E82",
"y c #756A96",
"u c #4204FC",
"i c #4205FA",
"p c #756B94",
"a c #5830CF",
"s c #4408F7",
"d c #4C18E8",
"f c #4913ED",
"g c #572ED2",
"h c #4D1AE6",
/* pixels */
"              ",
"        .XXo  ",
"       O+XXo  ",
"      @#$+Xo  ",
"      %X&*Xo  ",
"     =X-;*Xo  ",
"    :>,< *Xo  ",
"    1X2  *Xo  ",
"   3X45  *Xo  ",
"  6789   *Xo  ",
" 0qXw    *Xo  ",
" eXrt    *Xo  ",
"yuip     *Xo  ",
"aXsddddddXXfd%",
"gXXXXXXXXXXXXh",
"         *Xo  ",
"         *Xo  ",
"         *Xo  ",
"         *Xo  ",
"              "
};
