/* XPM */
static char *result[] = {
/* columns rows colors chars-per-pixel */
"14 20 72 1 ",
"  c #808080",
". c #4B17E8",
"X c #4000FF",
"o c #572ED2",
"O c #470FF0",
"+ c #4205FA",
"@ c #4408F8",
"# c #5933CC",
"$ c #4307F9",
"% c #6C59A7",
"& c #7F7E81",
"* c #70619E",
"= c #7B768A",
"- c #746996",
"; c #776E92",
": c #79728E",
"> c #72659A",
", c #776E91",
"< c #6142BE",
"1 c #5020E0",
"2 c #4913EC",
"3 c #4C18E8",
"4 c #562CD3",
"5 c #6B57A9",
"6 c #7F7F80",
"7 c #6E5DA3",
"8 c #4307F8",
"9 c #5020DF",
"0 c #7B7788",
"q c #6A54AB",
"w c #4A15EB",
"e c #6A54AC",
"r c #7A758B",
"t c #7E7D83",
"y c #756B94",
"u c #572FD0",
"i c #5225DB",
"p c #78718F",
"a c #6C58A8",
"s c #7E7C84",
"d c #5E3DC3",
"f c #6F5FA0",
"g c #4409F7",
"h c #5C38C8",
"j c #5428D7",
"k c #4E1DE2",
"l c #552BD4",
"z c #6244BC",
"x c #6C58A7",
"c c #7D7B84",
"v c #4306F9",
"b c #5F3EC1",
"n c #572ED1",
"m c #7C7987",
"M c #5F3FC1",
"N c #736699",
"B c #72659B",
"V c #4001FE",
"C c #736799",
"Z c #7C7986",
"A c #6244BB",
"S c #4102FD",
"D c #664DB3",
"F c #4103FD",
"G c #450AF6",
"H c #470FF1",
"J c #5326DA",
"K c #7D7A85",
"L c #5A34CB",
"P c #4A14EC",
"I c #4103FC",
"U c #460DF2",
/* pixels */
"              ",
" .XXXXXXXXXo  ",
" OX+@@@@@@@#  ",
" $X%          ",
"&XX*          ",
"=XX-          ",
";XX:          ",
">XX,<123456   ",
"7XX8XXXXXX90  ",
"qXXwertyuXXi  ",
"pa%s     dXXf ",
"         sgXh ",
"          1Xj ",
"          kXl ",
"5zx      cvXb ",
"nXOm     MXXN ",
"BVXkC  ZASX4  ",
" DFXXGHSXXJK  ",
"  yLP+IUjx6   ",
"              "
};
