/* XPM */
static char *result[] = {
/* columns rows colors chars-per-pixel */
"14 20 94 2 ",
"   c #808080",
".  c #7F7E81",
"X  c #654BB4",
"o  c #4E1DE2",
"O  c #4409F7",
"+  c #4205FB",
"@  c #4912ED",
"#  c #5A35CA",
"$  c #766C94",
"%  c #7C7986",
"&  c #4000FF",
"*  c #4408F7",
"=  c #460CF3",
"-  c #4001FF",
";  c #4204FB",
":  c #6D5BA4",
">  c #5326D9",
",  c #4810F0",
"<  c #6F5EA2",
"1  c #776F91",
"2  c #5020E0",
"3  c #450BF5",
"4  c #6E5CA4",
"5  c #4204FC",
"6  c #766C93",
"7  c #7A758A",
"8  c #4D1AE5",
"9  c #552BD4",
"0  c #756A95",
"q  c #5429D6",
"w  c #5A34CB",
"e  c #6E5DA2",
"r  c #756B94",
"t  c #7B7789",
"y  c #6448B8",
"u  c #552AD5",
"i  c #5021DE",
"p  c #562CD4",
"a  c #664CB3",
"s  c #7D7B85",
"d  c #6D5AA5",
"f  c #4102FD",
"g  c #72649C",
"h  c #470FF0",
"j  c #746997",
"k  c #6953AC",
"l  c #460DF3",
"z  c #5122DD",
"x  c #70619F",
"c  c #7B7788",
"v  c #6850AF",
"b  c #4409F6",
"n  c #470EF1",
"m  c #7C7987",
"M  c #6850B0",
"N  c #7F7F81",
"B  c #736798",
"V  c #4001FE",
"C  c #6346BA",
"Z  c #6A55AB",
"A  c #6C59A6",
"S  c #5225DB",
"D  c #5020DF",
"F  c #6F5FA1",
"G  c #736699",
"H  c #5D3AC6",
"J  c #4811EF",
"K  c #7A748C",
"L  c #6C58A7",
"P  c #5D3BC4",
"I  c #4912EE",
"U  c #4A14EC",
"Y  c #5E3CC4",
"T  c #5327D8",
"R  c #6142BD",
"E  c #4307F9",
"W  c #7A758B",
"Q  c #766D92",
"!  c #4103FD",
"~  c #6346B9",
"^  c #7D7A86",
"/  c #470EF2",
"(  c #4913ED",
")  c #72649B",
"_  c #4913EC",
"`  c #7C7887",
"'  c #460CF4",
"]  c #450AF6",
"[  c #71639C",
"{  c #5E3DC2",
"}  c #4B16EA",
"|  c #4306FA",
" . c #4A15EB",
".. c #5D3AC5",
/* pixels */
"                            ",
"      . X o O + @ # $       ",
"    % o & & * = - & ; :     ",
"    > & , <     1 2 & 3 %   ",
"  4 & 5 6         7 8 9 0   ",
"  q & w                     ",
". + & e                     ",
"r & & 7 t y u i p a s       ",
"d & f g = & & & & & h j     ",
"k & 5 l z x % c v b & n m   ",
"M & & z N         B V & C   ",
"Z & & A             S & D   ",
"F & & G             H & J   ",
"K & & L             P & I   ",
"  U & Y             T & z   ",
"  R & E W         Q ! & ~   ",
"  ^ / & ( j     ) _ & = `   ",
"    j ' & & n = & & ] [     ",
"      t { } | +  ...K       ",
"                            "
};
