/* XPM */
static char *result[] = {
/* columns rows colors chars-per-pixel */
"14 20 42 1 ",
"  c #808080",
". c #787090",
"X c #4000FF",
"o c #78718F",
"O c #4408F8",
"+ c #4306FA",
"@ c #4001FF",
"# c #562DD3",
"$ c #5B36CA",
"% c #6D5AA5",
"& c #470EF1",
"* c #7C7986",
"= c #7C7987",
"- c #6C59A6",
"; c #5A34CB",
": c #552BD4",
"> c #736798",
", c #4001FE",
"< c #4205FB",
"1 c #79728E",
"2 c #5020DF",
"3 c #5F3EC1",
"4 c #6F5FA0",
"5 c #4307F9",
"6 c #7C7888",
"7 c #5122DD",
"8 c #5D3BC5",
"9 c #766D93",
"0 c #776E92",
"q c #5E3CC4",
"w c #4E1DE2",
"e c #4912ED",
"r c #6143BC",
"t c #766C93",
"y c #73669A",
"u c #6850AF",
"i c #7E7C83",
"p c #5C39C6",
"a c #4912EE",
"s c #4E1DE3",
"d c #5224DC",
"f c #5123DD",
/* pixels */
"              ",
" .XXXXXXXXXXXX",
" oOOOOOOOOO+X@",
"           #X$",
"          %X&*",
"         =&X- ",
"         ;X:  ",
"        >,<1  ",
"        2X3   ",
"       4X56   ",
"       7X8    ",
"      9XX0    ",
"      qXw     ",
"      eXr     ",
"     tXXy     ",
"     uX,i     ",
"     pXa      ",
"     :Xs      ",
"     dXf      ",
"              "
};
