/* XPM */
static char *result[] = {
/* columns rows colors chars-per-pixel */
"14 20 94 2 ",
"   c #808080",
".  c #746996",
"X  c #5A34CB",
"o  c #4A14EC",
"O  c #4205FA",
"+  c #4103FC",
"@  c #460DF2",
"#  c #5327D8",
"$  c #6B56A9",
"%  c #654AB6",
"&  c #4102FD",
"*  c #4000FF",
"=  c #4409F7",
"-  c #5020DF",
";  c #5123DD",
":  c #4811EF",
">  c #5327D9",
",  c #7E7C83",
"<  c #73669A",
"1  c #4001FE",
"2  c #5C38C7",
"3  c #7D7B84",
"4  c #6A55AA",
"5  c #4102FE",
"6  c #5F3FC0",
"7  c #5C39C7",
"8  c #7F7E81",
"9  c #572ED2",
"0  c #4912EE",
"q  c #5932CE",
"w  c #4E1DE2",
"e  c #6040C0",
"r  c #450AF5",
"t  c #6448B7",
"y  c #450BF5",
"u  c #7E7C84",
"i  c #562DD3",
"p  c #5122DE",
"a  c #7D7A86",
"s  c #470EF1",
"d  c #5A34CC",
"f  c #6C59A6",
"g  c #6F5FA0",
"h  c #78708F",
"j  c #4001FF",
"k  c #4408F8",
"l  c #5020E0",
"z  c #4811EE",
"x  c #6D5AA5",
"c  c #7E7D82",
"v  c #6449B7",
"b  c #5C38C8",
"n  c #776E91",
"m  c #7D7A85",
"M  c #4E1DE3",
"N  c #4D1AE5",
"B  c #6E5DA3",
"V  c #7C7986",
"C  c #756A95",
"Z  c #5A35CA",
"A  c #4307F8",
"S  c #7060A0",
"D  c #5D3AC5",
"F  c #5D3BC5",
"G  c #7F7F81",
"H  c #6041BF",
"J  c #766C94",
"K  c #6E5CA3",
"L  c #7B7789",
"P  c #6851AE",
"I  c #664DB2",
"U  c #7E7D83",
"Y  c #6245BA",
"T  c #776E92",
"R  c #6A54AC",
"E  c #4C19E6",
"W  c #4E1CE4",
"Q  c #7F7F80",
"!  c #664DB3",
"~  c #787090",
"^  c #6E5DA2",
"/  c #552AD6",
"(  c #5F3EC2",
")  c #4F1FE0",
"_  c #5123DC",
"`  c #7C7888",
"'  c #72659B",
"]  c #5830CF",
"[  c #4912ED",
"{  c #4103FD",
"}  c #460CF4",
"|  c #5224DB",
" . c #6850AF",
".. c #7F7E82",
/* pixels */
"                            ",
"      . X o O + @ # $       ",
"    % & * = - ; : * * > ,   ",
"  < 1 * 2 3       4 5 * 6   ",
"  7 * @ 8           9 * 0   ",
"  q * w             e * r   ",
"  t * y u           i * p   ",
"  a s * d 3       f & 5 g   ",
"    h p j k l ; z * o x     ",
"    c v z * * * * O b n     ",
"  m M * N B V , C Z * A S   ",
"  D * @ a           F * 0 , ",
"G k * H             J * * K ",
"L * * P             a * * I ",
"U j * Y             T * * R ",
"  E * W Q           ! * * ~ ",
"  R * * F u       ^ = * /   ",
"    ( j * A ) _ 0 * * M `   ",
"      ' ] [ O { } |  ...    ",
"                            "
};
