/* XPM */
static char *result[] = {
/* columns rows colors chars-per-pixel */
"14 20 89 1 ",
"  c #808080",
". c #7D7A85",
"X c #6347B8",
"o c #4F1EE2",
"O c #4409F7",
"+ c #4103FC",
"@ c #470FF1",
"# c #572FD1",
"$ c #746897",
"% c #776F90",
"& c #4913EC",
"* c #4000FF",
"= c #4307F8",
"- c #470EF2",
"; c #4001FE",
": c #4102FD",
"> c #6850B0",
", c #7F7E81",
"< c #4B17E8",
"1 c #4409F6",
"2 c #6A55AA",
"3 c #7F7F81",
"4 c #79728D",
"5 c #5429D7",
"6 c #4102FE",
"7 c #736798",
"8 c #6B56AA",
"9 c #6D5AA6",
"0 c #4C18E8",
"q c #5326DA",
"w c #5932CD",
"e c #4912ED",
"r c #6A54AC",
"t c #7B7689",
"y c #5224DB",
"u c #5326D9",
"i c #78708F",
"p c #6D5BA4",
"a c #5225DA",
"s c #5224DC",
"d c #7F7E82",
"f c #6347B9",
"g c #5B37C9",
"h c #776E92",
"j c #5F3EC2",
"k c #6E5DA3",
"l c #674EB2",
"z c #7F7F80",
"x c #5429D6",
"c c #5C38C8",
"v c #4F1FE0",
"b c #6244BC",
"n c #7A758B",
"m c #71639C",
"M c #4205FA",
"N c #5E3CC4",
"B c #7A748C",
"V c #4C19E6",
"C c #4307F9",
"Z c #6B56A9",
"A c #4B16E9",
"S c #6143BD",
"D c #552BD5",
"F c #4E1DE2",
"G c #6A55AB",
"H c #756B94",
"J c #766D93",
"K c #6041BF",
"L c #4A14EC",
"P c #746996",
"I c #4D1AE6",
"U c #79738C",
"Y c #7E7D82",
"T c #4810EF",
"R c #4D1AE5",
"E c #766D92",
"W c #736699",
"Q c #4A15EB",
"! c #7E7D83",
"~ c #73669A",
"^ c #4408F7",
"/ c #4001FF",
"( c #460DF3",
") c #460CF3",
"_ c #78718F",
"` c #776E91",
"' c #5B36C9",
"] c #4306FA",
"[ c #7D7B85",
/* pixels */
"              ",
"   .XoO+@#$   ",
"  %&**=-;*:>  ",
" ,<*123 45*67 ",
" 8**9    ,0*q ",
" w*e      r*:t",
" y*u      i**p",
" a*s      d**f",
" g*-,     h**j",
" k**l    zx**c",
"  v*:bn.mqM@*N",
"  BV*****CZA*S",
"   d>DFuS4zC*G",
"          H**J",
"          K*L ",
" PI1%    U1*X ",
" YT*RE  WA*Q! ",
"  ~^*/()**e_  ",
"   `'&]CIb[   ",
"              "
};
