/* XPM */
static char *result[] = {
/* columns rows colors chars-per-pixel */
"15 19 38 1 ",
"  c #808080",
". c #444444",
"X c #101010",
"o c gray1",
"O c #131313",
"+ c #505050",
"@ c #484848",
"# c black",
"$ c #020202",
"% c #111111",
"& c #010101",
"* c gray35",
"= c gray50",
"- c gray5",
"; c #585858",
": c #1E1E1E",
"> c #6C6C6C",
", c #040404",
"< c #7E7E7E",
"1 c #717171",
"2 c #7B7B7B",
"3 c #5B5B5B",
"4 c #6A6A6A",
"5 c gray33",
"6 c #151515",
"7 c gray39",
"8 c #555555",
"9 c gray2",
"0 c gray36",
"q c gray42",
"w c #6F6F6F",
"e c gray49",
"r c gray7",
"t c #434343",
"y c #232323",
"u c gray31",
"i c gray38",
"p c gray9",
/* pixels */
"               ",
"               ",
"               ",
"               ",
"     .XoO+     ",
"    @#$%&#*    ",
"   =-#; @#:    ",
"   >#,< 1#&2   ",
"   3#X  <&#4   ",
"   5#6   ,#7   ",
"   8#6   9#7   ",
"   0#X  <&#q   ",
"   w#,< w#$e   ",
"    r#; t#y    ",
"    u#$%#$i    ",
"     @Xop;     ",
"               ",
"               ",
"               "
};
