/* XPM */
static char *result[] = {
/* columns rows colors chars-per-pixel */
"13 19 20 1 ",
"  c #808080",
". c #7C7C7C",
"X c gray22",
"o c #010101",
"O c black",
"+ c #686868",
"@ c #6A6A6A",
"# c gray9",
"$ c #2C2C2C",
"% c #070707",
"& c #4E4E4E",
"* c #4B4B4B",
"= c gray44",
"- c #7E7E7E",
"; c #3E3E3E",
": c gray15",
"> c #252525",
", c gray12",
"< c #414141",
"1 c #222222",
/* pixels */
"             ",
"             ",
"             ",
"             ",
"   .XoO+     ",
"  @#OOO+     ",
"  $%&OO+     ",
"  *=-OO+     ",
"    -OO+     ",
"    -OO+     ",
"    -OO+     ",
"    -OO+     ",
"    -OO+     ",
"    -OO+     ",
"  ;:>OO,:<   ",
"  1OOOOOO:   ",
"             ",
"             ",
"             "
};
