/* XPM */
static char *result[] = {
/* columns rows colors chars-per-pixel */
"13 19 37 1 ",
"  c #808080",
". c gray44",
"X c #2A2A2A",
"o c gray3",
"O c #070707",
"+ c gray10",
"@ c gray33",
"# c gray48",
"$ c #101010",
"% c black",
"& c #0E0E0E",
"* c #585858",
"= c gray31",
"- c gray47",
"; c gray18",
": c #272727",
"> c #646464",
", c #4C4C4C",
"< c gray37",
"1 c #494949",
"2 c #181818",
"3 c #7E7E7E",
"4 c #1E1E1E",
"5 c #373737",
"6 c #040404",
"7 c #6D6D6D",
"8 c gray50",
"9 c #323232",
"0 c #020202",
"q c gray32",
"w c #565656",
"e c gray24",
"r c gray38",
"t c #686868",
"y c #010101",
"u c gray35",
"i c #282828",
/* pixels */
"             ",
"             ",
"             ",
"             ",
"   .XoO+@    ",
"  #$%O&%%*   ",
"  =%&- ;%:   ",
"  >,<  1%2   ",
"      34%;   ",
"      5%67   ",
"    89%0q    ",
"   8;%6w     ",
"   e%Or      ",
"  ty%u       ",
"  ;%y&&&&&3  ",
"  i%%%%%%%3  ",
"             ",
"             ",
"             "
};
