/* XPM */
static char *result[] = {
/* columns rows colors chars-per-pixel */
"12 19 47 1 ",
"  c #808080",
". c gray47",
"X c #393939",
"o c #111111",
"O c gray1",
"+ c #101010",
"@ c #3E3E3E",
"# c gray49",
"$ c gray50",
"% c #222222",
"& c black",
"* c #040404",
"= c #656565",
"- c #070707",
"; c gray44",
": c gray27",
"> c #090909",
", c #717171",
"< c #5A5A5A",
"1 c #626262",
"2 c gray38",
"3 c #767676",
"4 c gray17",
"5 c gray10",
"6 c gray2",
"7 c gray23",
"8 c #7B7B7B",
"9 c #2A2A2A",
"0 c #0C0C0C",
"q c #0E0E0E",
"w c #585858",
"e c #535353",
"r c gray45",
"t c #646464",
"y c gray28",
"u c gray36",
"i c #4B4B4B",
"p c #6F6F6F",
"a c gray37",
"s c gray42",
"d c gray48",
"f c gray5",
"g c #010101",
"h c #2D2D2D",
"j c gray4",
"k c #131313",
"l c #3A3A3A",
/* pixels */
"            ",
"            ",
"            ",
"            ",
"  .XoO+@#   ",
" $%&*+&&X   ",
" =&-; :&>   ",
" ,<1  2&O$  ",
"     34&4   ",
"    5&678   ",
"    90&qw   ",
"      e&*r  ",
" tye   *&u  ",
" i&>p a&&s  ",
" do&Ofg&%$  ",
"  ,hj*kl.   ",
"            ",
"            ",
"            "
};
