/* XPM */
static char *result[] = {
/* columns rows colors chars-per-pixel */
"13 19 28 1 ",
"  c #808080",
". c #7C7C7C",
"X c #111111",
"o c black",
"O c gray8",
"+ c gray26",
"@ c #727272",
"# c #060606",
"$ c #040404",
"% c #2D2D2D",
"& c gray21",
"* c gray39",
"= c #222222",
"- c #606060",
"; c gray50",
": c gray10",
"> c gray43",
", c #4E4E4E",
"< c #434343",
"1 c #797979",
"2 c #0B0B0B",
"3 c #161616",
"4 c gray49",
"5 c #585858",
"6 c DimGray",
"7 c gray15",
"8 c gray11",
"9 c #646464",
/* pixels */
"             ",
"             ",
"             ",
"             ",
"     .XoO    ",
"     +ooO    ",
"    @#$oO    ",
"    %o&oO    ",
"   *o=-oO    ",
"  ;:$>-oO    ",
"  ,o< -oO    ",
" 1234 -oO    ",
" -oooooooo5  ",
" 677778o#79  ",
"      -oO    ",
"      -oO    ",
"             ",
"             ",
"             "
};
