/* XPM */
static char *result[] = {
/* columns rows colors chars-per-pixel */
"13 19 43 1 ",
"  c #808080",
". c #767676",
"X c black",
"o c gray22",
"O c #6F6F6F",
"+ c gray1",
"@ c gray15",
"# c gray30",
"$ c #676767",
"% c #0E0E0E",
"& c #606060",
"* c gray8",
"= c #585858",
"- c #161616",
"; c #3C3C3C",
": c #1B1B1B",
"> c #202020",
", c #555555",
"< c #515151",
"1 c gray29",
"2 c gray34",
"3 c #1E1E1E",
"4 c #232323",
"5 c #656565",
"6 c #777777",
"7 c #2D2D2D",
"8 c #090909",
"9 c gray50",
"0 c #797979",
"q c #6C6C6C",
"w c gray45",
"e c #727272",
"r c #353535",
"t c #7C7C7C",
"y c gray24",
"u c #7E7E7E",
"i c gray42",
"p c gray2",
"a c gray6",
"s c #484848",
"d c #0B0B0B",
"f c #040404",
"g c #191919",
/* pixels */
"             ",
"             ",
"             ",
"             ",
"  .XXXXXXo   ",
"  OX+@@@@#   ",
"  $X%        ",
"  &X*        ",
"  =X-;:>,    ",
"  <XXXXXX1   ",
"  234567X89  ",
"       OXXO  ",
"  0qw  eXXq  ",
"  rX3t yX8u  ",
"  ipX8aXXs   ",
"   54dfg=    ",
"             ",
"             ",
"             "
};
