/* XPM */
static char *result[] = {
/* columns rows colors chars-per-pixel */
"13 19 45 1 ",
"  c #808080",
". c #5A5A5A",
"X c #191919",
"o c #040404",
"O c gray5",
"+ c gray23",
"@ c #7E7E7E",
"# c #5D5D5D",
"$ c #010101",
"% c black",
"& c gray6",
"* c gray1",
"= c gray24",
"- c #181818",
"; c #444444",
": c gray36",
"> c #0E0E0E",
", c #2A2A2A",
"< c #717171",
"1 c gray2",
"2 c #7B7B7B",
"3 c gray40",
"4 c gray20",
"5 c #2D2D2D",
"6 c #555555",
"7 c #505050",
"8 c #0C0C0C",
"9 c #3E3E3E",
"0 c #4E4E4E",
"q c #494949",
"w c #797979",
"e c #767676",
"r c gray33",
"t c #070707",
"y c gray50",
"u c #060606",
"i c #606060",
"p c #686868",
"a c gray4",
"s c #5F5F5F",
"d c gray37",
"f c #020202",
"g c #747474",
"h c #151515",
"j c gray25",
/* pixels */
"             ",
"             ",
"             ",
"             ",
"   .XoO+@    ",
"  #$%&*%=    ",
"  -%; :>,    ",
" <%12        ",
" .%-3456     ",
" 7%8*%%%9    ",
" 0%%qw;%*e   ",
" r%t  yu%i   ",
" p%o@  a%s   ",
" yO%0 d%fg   ",
"  7%$h*%4    ",
"   7h*Oj@    ",
"             ",
"             ",
"             "
};
