/* XPM */
static char *result[] = {
/* columns rows colors chars-per-pixel */
"13 19 27 1 ",
"  c #808080",
". c #181818",
"X c black",
"o c gray15",
"O c #252525",
"+ c #101010",
"@ c gray4",
"# c #272727",
"$ c gray14",
"% c #585858",
"& c #565656",
"* c #202020",
"= c #7C7C7C",
"- c gray6",
"; c #656565",
": c #494949",
"> c #222222",
", c gray5",
"< c gray37",
"1 c gray34",
"2 c gray50",
"3 c #2C2C2C",
"4 c #343434",
"5 c gray3",
"6 c gray45",
"7 c #6A6A6A",
"8 c DimGray",
/* pixels */
"             ",
"             ",
"             ",
"             ",
"  .XXXXXXo   ",
"  O++++@X#   ",
"       $X%   ",
"      &X*    ",
"     =-X;    ",
"     :X>     ",
"    =,X<     ",
"    1X,2     ",
"    3X4      ",
"    5X&      ",
"   6XX7      ",
"   8XX6      ",
"             ",
"             ",
"             "
};
