/* XPM */
static char *result[] = {
/* columns rows colors chars-per-pixel */
"14 19 55 1 ",
"  c #808080",
". c #6A6A6A",
"X c #272727",
"o c #0C0C0C",
"O c #060606",
"+ c #191919",
"@ c gray30",
"# c gray50",
"$ c gray46",
"% c #0B0B0B",
"& c black",
"* c gray10",
"= c gray16",
"- c #020202",
"; c #4B4B4B",
": c #505050",
"> c #0E0E0E",
", c #7E7E7E",
"< c gray24",
"1 c gray11",
"2 c gray29",
"3 c #1B1B1B",
"4 c #4C4C4C",
"5 c #161616",
"6 c #6F6F6F",
"7 c gray1",
"8 c gray39",
"9 c #777777",
"0 c #222222",
"q c #3F3F3F",
"w c gray37",
"e c #010101",
"r c gray23",
"t c gray48",
"y c gray2",
"u c gray3",
"i c #5A5A5A",
"p c #414141",
"a c gray34",
"s c gray4",
"d c #282828",
"f c gray43",
"g c #717171",
"h c #353535",
"j c #232323",
"k c #565656",
"l c gray49",
"z c DimGray",
"x c gray17",
"c c gray22",
"v c #606060",
"b c gray13",
"n c #070707",
"m c gray7",
"M c gray25",
/* pixels */
"              ",
"              ",
"              ",
"              ",
"    .XoO+@#   ",
"   $%&*=-&;   ",
"   :&>, <&1   ",
"   2&3  4&5   ",
"   677890&q   ",
"    w>&&er,   ",
"   t0&1=yui   ",
"   p&0  a&s,  ",
"   d&r  f&&g  ",
"   h&j  k&7l  ",
"   z7&1xO&c   ",
"    vbn7mMl   ",
"              ",
"              ",
"              "
};
