/* XPM */
static char *result[] = {
/* columns rows colors chars-per-pixel */
"14 19 49 1 ",
"  c #808080",
". c gray50",
"X c gray29",
"o c gray9",
"O c gray2",
"+ c #0E0E0E",
"@ c gray24",
"# c gray49",
"$ c #414141",
"% c black",
"& c #010101",
"* c gray7",
"= c #020202",
"- c #373737",
"; c #060606",
": c #606060",
"> c gray46",
", c #6F6F6F",
"< c #767676",
"1 c #131313",
"2 c #555555",
"3 c gray45",
"4 c #727272",
"5 c #161616",
"6 c #0C0C0C",
"7 c #353535",
"8 c #797979",
"9 c #535353",
"0 c #3A3A3A",
"q c #4C4C4C",
"w c gray6",
"e c #3C3C3C",
"r c #5A5A5A",
"t c #2D2D2D",
"y c gray18",
"u c gray36",
"i c #272727",
"p c #464646",
"a c #7E7E7E",
"s c #101010",
"d c #232323",
"f c gray1",
"g c #565656",
"h c gray3",
"j c #7C7C7C",
"k c gray26",
"l c #3E3E3E",
"z c gray8",
"x c gray30",
/* pixels */
"              ",
"              ",
"              ",
"              ",
"   .XoO+@#    ",
"   $%&*=%-    ",
"  .;%X :%=>   ",
"  ,%%<  1%2   ",
"  3%%4  5%$   ",
"  .6%789&%0   ",
"   q%%%%w%e   ",
"    rtyui%p   ",
"    a.  s%u   ",
"   dfg 2%hj   ",
"   k%=1&%X    ",
"   .l+fzx     ",
"              ",
"              ",
"              "
};
